<?xml version="1.0" encoding="utf-8"?>
<!-- Generator: Adobe Illustrator 24.0.3, SVG Export Plug-In . SVG Version: 6.00 Build 0)  -->
<svg version="1.1" id="Calque_1" xmlns="http://www.w3.org/2000/svg" xmlns:xlink="http://www.w3.org/1999/xlink" x="0px" y="0px"
	 viewBox="0 0 597.31 223.34" style="enable-background:new 0 0 597.31 223.34;" xml:space="preserve">
<style type="text/css">
	.st0{fill:#FFFFFF;}
	.st1{clip-path:url(#SVGID_2_);fill:#FFFFFF;}
	.st2{clip-path:url(#SVGID_2_);fill:#FECF6B;}
	.st3{clip-path:url(#SVGID_2_);fill:#F94869;}
	.st4{clip-path:url(#SVGID_2_);fill:#FA6A69;}
	.st5{clip-path:url(#SVGID_2_);fill:#FB8C6A;}
	.st6{clip-path:url(#SVGID_2_);fill:#FDAD6A;}
	.st7{clip-path:url(#SVGID_2_);fill:#FFF16B;}
	.st8{clip-path:url(#SVGID_2_);fill:#003AFF;}
	.st9{clip-path:url(#SVGID_2_);fill:#2D5CF9;}
	.st10{clip-path:url(#SVGID_2_);fill:#5B7EF4;}
	.st11{clip-path:url(#SVGID_2_);fill:#889FEE;}
	.st12{clip-path:url(#SVGID_2_);fill:#B6C1E9;}
	.st13{clip-path:url(#SVGID_2_);fill:#FFF06B;}
	.st14{clip-path:url(#SVGID_2_);fill:#C74587;}
	.st15{clip-path:url(#SVGID_2_);fill:#9542A5;}
	.st16{clip-path:url(#SVGID_2_);fill:#6440C3;}
	.st17{clip-path:url(#SVGID_2_);fill:#323DE1;}
</style>
<polygon class="st0" points="233.46,120.05 233.46,127.06 203.88,127.06 203.88,87.3 211.19,87.3 211.19,120.05 "/>
<g>
	<defs>
		<rect id="SVGID_1_" width="597.31" height="223.34"/>
	</defs>
	<clipPath id="SVGID_2_">
		<use xlink:href="#SVGID_1_"  style="overflow:visible;"/>
	</clipPath>
	<path class="st1" d="M268.3,98.68v28.38h-7.12v-4.25c-2.99,3.35-6.63,5.03-10.9,5.03c-4.11,0-7.38-1.15-9.79-3.44
		c-2.41-2.29-3.62-5.96-3.62-10.99V98.68h7.12v14.73c0,2.64,0.79,4.56,2.37,5.78c1.58,1.22,3.44,1.83,5.6,1.83
		c2.6,0,4.77-0.79,6.53-2.36c1.76-1.58,2.63-3.94,2.63-7.1h0.06V98.68H268.3z"/>
	<path class="st1" d="M283.78,126.94c-1.86-0.6-3.59-1.49-5.21-2.66s-2.91-2.75-3.89-4.73s-1.47-4.22-1.47-6.74
		c0-2.47,0.49-4.69,1.47-6.65c0.98-1.96,2.27-3.52,3.86-4.7c1.6-1.18,3.33-2.07,5.21-2.66c1.88-0.6,3.79-0.9,5.75-0.9
		c2.51,0,4.97,0.5,7.36,1.5c2.4,1,4.35,2.46,5.87,4.37l-5.33,5.09c-0.8-1.36-1.92-2.38-3.35-3.08c-1.44-0.7-2.95-1.05-4.55-1.05
		c-2.36,0-4.44,0.7-6.26,2.1c-1.82,1.4-2.72,3.41-2.72,6.05c0,2.63,0.91,4.65,2.72,6.05c1.82,1.4,3.9,2.1,6.26,2.1
		c1.6,0,3.13-0.36,4.61-1.08c1.48-0.72,2.59-1.76,3.35-3.11l5.99,4.13c-1.44,2.24-3.43,3.94-5.99,5.12
		c-2.55,1.18-5.21,1.77-7.96,1.77C287.54,127.83,285.63,127.54,283.78,126.94"/>
	<polygon class="st1" points="320.57,114.96 314.82,120.17 314.82,127.06 307.69,127.06 307.69,87.3 314.82,87.3 314.82,110.89 
		328.47,98.68 338.77,98.68 325.72,110.29 339.31,127.06 330.39,127.06 	"/>
	<polygon class="st1" points="375.77,98.68 355.83,138.13 348.05,138.13 353.62,127.06 338.59,98.68 346.49,98.68 357.51,119.33 
		367.93,98.68 	"/>
	<path class="st1" d="M386.64,126.94c-1.86-0.6-3.59-1.49-5.21-2.66c-1.62-1.18-2.91-2.75-3.89-4.73s-1.47-4.22-1.47-6.74
		c0-2.47,0.49-4.69,1.47-6.65c0.98-1.96,2.26-3.52,3.86-4.7c1.6-1.18,3.33-2.07,5.21-2.66c1.88-0.6,3.79-0.9,5.75-0.9
		c2.51,0,4.97,0.5,7.36,1.5c2.4,1,4.35,2.46,5.87,4.37l-5.33,5.09c-0.8-1.36-1.92-2.38-3.35-3.08c-1.44-0.7-2.95-1.05-4.55-1.05
		c-2.36,0-4.44,0.7-6.26,2.1c-1.82,1.4-2.72,3.41-2.72,6.05c0,2.63,0.91,4.65,2.72,6.05c1.82,1.4,3.9,2.1,6.26,2.1
		c1.6,0,3.13-0.36,4.61-1.08c1.48-0.72,2.59-1.76,3.35-3.11l5.99,4.13c-1.44,2.24-3.43,3.94-5.99,5.12
		c-2.55,1.18-5.21,1.77-7.96,1.77C390.4,127.83,388.49,127.54,386.64,126.94"/>
	<path class="st1" d="M440.25,98.68v28.38h-7.12v-3.47c-2.83,2.83-6.37,4.25-10.6,4.25c-3.83,0-7.24-1.3-10.21-3.89
		c-2.97-2.59-4.46-6.29-4.46-11.08c0-4.75,1.49-8.43,4.46-11.05c2.97-2.61,6.38-3.92,10.21-3.92c4.19,0,7.72,1.42,10.6,4.25v-3.47
		H440.25z M430.61,118.79c1.64-1.48,2.45-3.45,2.45-5.93c0-2.48-0.82-4.45-2.45-5.93c-1.64-1.48-3.79-2.22-6.47-2.22
		c-2.67,0-4.84,0.74-6.5,2.22c-1.66,1.48-2.48,3.45-2.48,5.93c0,2.47,0.83,4.45,2.48,5.93c1.66,1.48,3.82,2.22,6.5,2.22
		C426.82,121.01,428.97,120.27,430.61,118.79"/>
	<path class="st1" d="M470.06,112.69c0.16-2.43-0.52-4.37-2.04-5.81c-1.52-1.44-3.35-2.15-5.51-2.15c-2.31,0-4.33,0.8-6.05,2.4
		c-1.72,1.6-2.58,3.97-2.58,7.12v12.81h-7.12V98.68h7.12v4.25c3.03-3.35,6.67-5.03,10.9-5.03c3.55,0,6.45,0.98,8.68,2.93
		c2.23,1.96,3.43,4.69,3.59,8.2L470.06,112.69z"/>
	<path class="st1" d="M506.71,122.51c-0.84,1.64-2.09,2.94-3.74,3.89c-1.66,0.96-3.52,1.44-5.6,1.44c-3.07,0-5.6-0.89-7.57-2.66
		c-1.98-1.78-2.96-4.12-2.96-7.04V105.5h-7.01v-6.83h7.01v-5.33l7.12-4.25v9.58h9.1v6.83h-9.1v11.68c0,1.24,0.31,2.19,0.93,2.85
		c0.62,0.66,1.45,0.99,2.48,0.99c1.68,0,2.75-0.76,3.23-2.28L506.71,122.51z"/>
	<path class="st2" d="M161.48,110.99c-0.35,0.76-0.79,1.44-1.29,2.06l9.74,8.02c1.19-1.45,2.21-3.07,3.03-4.86L161.48,110.99z"/>
	<path class="st3" d="M147.08,114.33c-0.65-0.53-1.19-1.13-1.65-1.78l-10.26,7.34c1.09,1.52,2.39,2.94,3.91,4.18l0,0
		c1.45,1.19,3.07,2.21,4.86,3.03l5.22-11.48C148.38,115.27,147.7,114.83,147.08,114.33"/>
	<path class="st4" d="M149.15,115.61l-5.22,11.49c1.71,0.77,3.54,1.34,5.48,1.67l2.07-12.44
		C150.65,116.19,149.87,115.94,149.15,115.61"/>
	<path class="st5" d="M151.47,116.32l-2.07,12.45c1.85,0.31,3.77,0.38,5.72,0.19l-1.22-12.55
		C153.07,116.49,152.26,116.45,151.47,116.32"/>
	<path class="st6" d="M156.27,115.86c-0.78,0.29-1.58,0.46-2.37,0.54l1.22,12.56c1.87-0.18,3.74-0.61,5.58-1.29v0
		c1.76-0.66,3.45-1.55,5.05-2.69v0c1.53-1.09,2.93-2.39,4.18-3.91l-9.74-8.01c-0.53,0.65-1.13,1.19-1.78,1.65l0,0.01
		C157.74,115.2,157.01,115.57,156.27,115.86"/>
	<path class="st6" d="M104.04,103.27c0.35-0.76,0.79-1.44,1.29-2.06l-9.74-8.02c-1.19,1.45-2.21,3.07-3.03,4.86l0,0
		c-0.77,1.71-1.35,3.54-1.67,5.48l12.44,2.07C103.47,104.78,103.72,104,104.04,103.27"/>
	<path class="st2" d="M103.34,105.6l-12.45-2.07c-0.31,1.85-0.38,3.77-0.19,5.72l12.55-1.22
		C103.17,107.2,103.21,106.39,103.34,105.6"/>
	<path class="st7" d="M103.26,108.03l-12.56,1.22c0.18,1.87,0.61,3.74,1.3,5.58l11.8-4.43
		C103.51,109.62,103.34,108.83,103.26,108.03"/>
	<path class="st8" d="M103.81,110.4L92,114.83c0.66,1.76,1.55,3.45,2.69,5.05l10.26-7.33C104.46,111.87,104.09,111.15,103.81,110.4"
		/>
	<path class="st9" d="M104.95,112.55l-10.27,7.34c1.09,1.52,2.39,2.93,3.91,4.18l8.01-9.74
		C105.96,113.8,105.42,113.19,104.95,112.55"/>
	<path class="st3" d="M121.61,87.17c-0.04-0.02-0.08-0.03-0.12-0.05c-1.67-0.75-3.47-1.3-5.36-1.62l-2.07,12.44
		c0.82,0.14,1.6,0.39,2.32,0.72l0,0l0.08,0.03c0.73,0.34,1.39,0.77,1.98,1.26l0,0l0.08,0.06c0.61,0.51,1.13,1.09,1.58,1.72
		l10.26-7.34c-1.06-1.49-2.33-2.86-3.8-4.09l0,0l-0.11-0.09l0,0c-0.01-0.01-0.01-0.01-0.02-0.02l-0.06-0.05l0,0
		c-1.38-1.12-2.92-2.1-4.61-2.88l0,0l0,0C121.71,87.22,121.66,87.19,121.61,87.17"/>
	<path class="st4" d="M111.63,97.86c0.83-0.08,1.64-0.05,2.43,0.08l2.07-12.45c-1.85-0.31-3.77-0.38-5.72-0.2L111.63,97.86z"/>
	<path class="st10" d="M115.8,115.86c-0.78,0.29-1.58,0.46-2.37,0.54l0.64,6.57l-0.64-6.57c-0.83,0.08-1.64,0.04-2.43-0.09v0
		l-0.16-0.02c-0.76-0.14-1.49-0.38-2.17-0.69l0,0.01c-0.76-0.35-1.44-0.79-2.06-1.29l-8.02,9.74c1.45,1.19,3.07,2.22,4.86,3.03l0,0
		c1.64,0.74,3.4,1.29,5.25,1.62l0,0.01l0.2,0.03c0.01,0,0.02,0,0.03,0.01v0l0,0c0.02,0,0.04,0.01,0.06,0.01l0.17,0.03l0-0.01
		c1.78,0.27,3.61,0.34,5.49,0.16v0c1.87-0.18,3.74-0.61,5.58-1.29L115.8,115.86z"/>
	<path class="st11" d="M119.73,113.05c-0.53,0.65-1.14,1.19-1.78,1.65l0,0.01c-0.68,0.49-1.4,0.86-2.15,1.14l4.43,11.82
		c1.75-0.66,3.45-1.55,5.05-2.69l0,0c1.52-1.09,2.93-2.39,4.18-3.91L119.73,113.05z"/>
	<path class="st5" d="M109.26,98.41L109.26,98.41l0.11-0.05c0.75-0.27,1.5-0.43,2.26-0.5l-1.22-12.56
		c-1.79,0.18-3.59,0.58-5.36,1.22l0-0.01l-0.2,0.07c-0.01,0-0.01,0-0.02,0.01h0l0,0c-0.02,0.01-0.03,0.01-0.05,0.02l-0.13,0.05
		l0,0.01c-1.64,0.63-3.23,1.47-4.73,2.52l0,0l-0.13,0.09c0,0-0.01,0-0.01,0.01l0,0l0,0c-0.01,0.01-0.03,0.02-0.04,0.03l-0.11,0.08
		l0,0c-1.47,1.07-2.83,2.33-4.04,3.8l9.74,8.01c0.53-0.64,1.13-1.19,1.78-1.65l0,0l0.07-0.05
		C107.84,99.04,108.54,98.68,109.26,98.41"/>
	
		<rect x="123.81" y="109.1" transform="matrix(0.6354 -0.7722 0.7722 0.6354 -43.1895 139.3339)" class="st12" width="4.29" height="12.61"/>
	
		<rect x="126.54" y="105.79" transform="matrix(0.6354 -0.7722 0.7722 0.6354 -39.6414 140.2297)" class="st13" width="4.29" height="12.61"/>
	
		<rect x="129.26" y="102.48" transform="matrix(0.6354 -0.7722 0.7722 0.6354 -36.0933 141.1256)" class="st3" width="4.29" height="12.61"/>
	<polygon class="st14" points="133.34,96.51 130.62,99.82 127.9,103.13 137.63,111.14 140.35,107.83 143.08,104.52 	"/>
	<path class="st15" d="M147.58,99.55l-7.34-10.26c-1.43,1.02-2.76,2.24-3.95,3.64l-0.01-0.01l-0.2,0.24
		c-0.01,0.01-0.02,0.02-0.03,0.03l0,0l0,0l-0.14,0.17l0,0l-2.58,3.14l9.74,8.01l2.55-3.1l0.21-0.25
		C146.36,100.54,146.95,100.01,147.58,99.55"/>
	<path class="st16" d="M151.07,85.29L151.07,85.29l-0.16,0.01c-0.01,0-0.02,0-0.03,0v0v0c-0.02,0-0.04,0.01-0.07,0.01l-0.21,0.02
		l0,0.01c-1.71,0.19-3.42,0.58-5.1,1.19l0-0.01l-0.16,0.06c-0.01,0-0.02,0.01-0.04,0.01l0,0l0,0c-0.03,0.01-0.05,0.02-0.08,0.03
		l-0.23,0.09l0,0.01c-1.64,0.65-3.24,1.49-4.74,2.57l7.33,10.26c0.68-0.49,1.4-0.86,2.15-1.14v0l0.12-0.05
		c0.74-0.27,1.5-0.43,2.25-0.5v0l0.12-0.01c0.79-0.06,1.56-0.03,2.31,0.1l2.07-12.45C154.81,85.2,152.95,85.12,151.07,85.29"/>
	<path class="st17" d="M158.92,99.94l8.02-9.74c-1.42-1.16-3.01-2.17-4.75-2.97l0,0l-0.11-0.05c0,0,0,0-0.01,0l0,0
		c-0.01-0.01-0.03-0.01-0.04-0.02l-0.14-0.06l0,0c-1.65-0.73-3.43-1.28-5.29-1.59l-2.07,12.45c0.82,0.14,1.6,0.38,2.32,0.71l0,0
		l0.13,0.06C157.69,99.04,158.33,99.46,158.92,99.94"/>
	<path class="st8" d="M162.27,106.23l12.56-1.22c-0.18-1.8-0.58-3.6-1.23-5.37l0.01,0l-0.07-0.18c0-0.01-0.01-0.02-0.01-0.03l0,0v0
		h0c-0.01-0.02-0.02-0.04-0.02-0.06l-0.06-0.16l-0.01,0c-0.65-1.68-1.51-3.3-2.6-4.83h0c-1.09-1.53-2.39-2.93-3.91-4.18l-8.01,9.74
		c0.64,0.53,1.19,1.13,1.65,1.78l0.01-0.01c0.49,0.68,0.86,1.4,1.14,2.15l0.07,0.17C162.04,104.75,162.2,105.49,162.27,106.23"/>
	<path class="st7" d="M174.66,110.49c0.27-1.77,0.34-3.61,0.16-5.48l-12.55,1.22c0.08,0.83,0.04,1.64-0.09,2.43h0l-0.03,0.17
		c-0.14,0.76-0.38,1.48-0.68,2.15l11.49,5.22c0.74-1.63,1.29-3.38,1.62-5.22l0.01,0l0.04-0.23c0-0.01,0.01-0.02,0.01-0.03l0,0
		c0-0.02,0.01-0.04,0.01-0.07L174.66,110.49L174.66,110.49z"/>
</g>
</svg>
