<svg xmlns="http://www.w3.org/2000/svg" width="2500" height="2500" viewBox="0 0 192.756 192.756"><g fill-rule="evenodd" clip-rule="evenodd"><path fill="#fff" d="M0 0h192.756v192.756H0V0z"/><path d="M162.406 92.722l-4.146-8.293c-.854-1.707-1.098-1.951-2.805-1.951h-7.074l-.121.731c.975.244 1.219.488 1.707 1.342l6.707 13.659c2.074-1.707 3.902-3.659 5.732-5.488zM170.699 109.551l-5.367-10.854c-1.828 1.83-3.658 3.66-5.73 5.488l2.682 5.488c.977 1.951 1.586 2.316 3.414 2.316h7.074l.121-.609c-1.098-.364-1.584-.732-2.194-1.829z" fill="#0c0e0f"/><path d="M182.648 55.162c2.318 9.634-5.242 24.39-19.512 39.024-1.828 1.83-3.779 3.658-5.73 5.488a144.555 144.555 0 0 1-12.074 9.756c-29.268 21.463-61.34 29.756-71.462 18.537-2.927-3.293-3.658-7.807-2.683-13.049-2.439 7.193-2.195 13.414 1.585 17.561 10.366 11.463 43.048 3.049 72.927-18.902a173.686 173.686 0 0 0 13.17-10.854c2.072-1.83 3.902-3.658 5.732-5.488 15.731-16.342 23.17-32.684 18.047-42.073z" fill="#cc4f4f"/><path d="M136.553 74.795c0-2.927 2.438-5.244 5.244-5.244 2.926 0 5.365 2.317 5.365 5.244s-2.439 5.244-5.365 5.244c-2.807.001-5.244-2.317-5.244-5.244z" fill="#cc4f4f"/><path d="M24.358 86.015l2.561-10.976h5.731c3.537 0 4.756.854 4.756 3.415 0 5.244-2.439 7.561-7.805 7.561h-5.243zm18.78 18.78H41.43c-1.463 0-1.952-.244-2.439-1.707l-3.659-10.61c7.561-.975 11.951-6.951 11.951-15.853 0-5.976-2.561-8.171-9.756-8.171h-20.73l-.123.976c.854.244 1.098.61 1.098 1.708 0 .487 0 .854-.244 1.707l-8.902 37.074c-.122.486-.122.854-.122.975 0 .977.61 1.463 1.951 1.463h9.269l.244-.854c-.976-.365-1.22-.73-1.22-1.828 0-.488.122-.854.244-1.707l3.78-15.489h3.415l4.756 17.196c.488 2.072 1.22 2.682 3.537 2.682h4.146c2.195 0 2.805-.609 3.293-2.682l1.219-4.88zM55.089 93.698c1.219-4.634 2.805-6.098 6.463-6.098 2.805 0 4.146.976 4.146 3.171 0 .854-.122 1.585-.366 2.927H55.089zm-1.219 4.878h12.683c4.391 0 5.732-2.073 5.732-8.781 0-5.244-2.927-7.561-9.512-7.561-5.366 0-8.415.976-10.976 3.415-3.293 3.171-6.341 12.074-6.341 18.537 0 5.975 2.927 8.17 11.463 8.17 3.902 0 6.219-.365 7.927-.975 1.707-.488 1.951-.977 2.683-4.268l.976-4.025h-.61c-1.83 2.074-3.78 2.684-8.902 2.684-4.512 0-5.854-.732-5.854-3.172 0-.73.123-1.34.244-1.828l.487-2.196zM93.503 82.479l-.854 3.658c-.366 1.708-.854 2.073-2.683 2.073h-1.951c-2.317 0-3.049.61-3.537 2.805l-2.927 11.829c-.122.732-.244 1.098-.244 1.342 0 1.342.488 1.463 3.292 1.463 2.561 0 3.293-.244 3.902-1.828h.854l-1.341 5.365c-.488 2.316-1.098 2.805-3.537 2.805H75.94c-2.195 0-3.293-.975-3.293-2.805 0-.488 0-1.098.244-1.828l4.634-19.269h-2.683l1.098-4.634c4.512-.488 7.439-2.439 9.756-6.463h2.195l-1.342 5.488h6.954v-.001zM107.771 105.771h-4.512c-2.561 0-3.414-.609-3.414-2.195 0-4.146 2.072-6.342 5.975-6.342h3.902l-1.951 8.537zm-.244.854l-.73 3.414c-.244.488-.244.732-.244.854 0 .854.488 1.098 1.707 1.098h6.951l.121-.609c-.609-.123-.975-.488-.975-1.098 0-.365.121-.732.244-1.586l4.512-18.658c.365-1.463.488-2.195.488-2.805 0-3.048-2.439-4.756-6.586-4.756h-12.561l-.732 2.927c-.121.61-.244.976-.244 1.219 0 .976.611 1.464 2.074 1.464h7.195c2.195 0 2.805.122 2.805 1.219 0 2.195-.854 3.17-2.805 3.17h-5.611c-7.072 0-11.218 5.122-11.218 13.782 0 4.268 2.195 6.096 7.318 6.096 3.535 0 4.756-.365 5.609-1.828l2.682-3.903zM127.406 68.332h6.951c1.342 0 1.586.122 1.586 1.098 0 .244 0 .61-.123.732l-9.023 38.536c-.244.854-.244 1.221-.244 1.586 0 .609.244.975.975 1.098l-.121.609h-6.83c-1.219 0-1.828-.365-1.828-1.219 0-.244.121-.732.242-1.098l8.904-38.049c.242-.731.365-1.219.365-1.585 0-.61-.365-.976-1.098-1.098l.244-.61zM136.186 82.479h6.707c1.221 0 1.83.366 1.83 1.219 0 .244-.121.488-.121 1.098l-5.732 23.902c-.244.854-.365 1.221-.365 1.586 0 .609.365.975.975 1.098l-.121.609h-7.195c-.977 0-1.342-.244-1.342-1.098 0-.244 0-.732.121-1.098l5.732-23.902c.244-.854.365-1.22.365-1.707 0-.61-.365-.854-1.096-1.098l.242-.609z" fill="#0c0e0f"/></g></svg>