<svg xmlns="http://www.w3.org/2000/svg" xmlns:xlink="http://www.w3.org/1999/xlink" viewBox="0 0 843.2 896.17"><defs><style>.a{fill:#10100b;}.b{fill:#898989;}.c{fill:url(#a);}.d{fill:url(#b);}.e{fill:url(#c);}.f{fill:#f9f2b4;}.g{fill:url(#d);}.h{fill:url(#e);}.i{fill:url(#f);}.j{fill:url(#g);}.k{fill:url(#h);}.l{fill:url(#i);}.m{fill:url(#j);}.n{fill:url(#k);}.o{fill:url(#l);}.p{fill:url(#m);}.q{fill:url(#n);}.r{fill:url(#o);}.s{fill:url(#p);}.t{fill:url(#q);}.u{fill:url(#r);}.v{fill:url(#s);}.w{fill:url(#t);}.x{fill:url(#u);}.y{fill:url(#v);}.z{fill:url(#w);}.aa{fill:url(#x);}.ab{fill:url(#y);}.ac{fill:url(#z);}.ad{fill:url(#aa);}.ae{fill:url(#ab);}.af{fill:url(#ac);}.ag{fill:url(#ad);}.ah{fill:url(#ae);}.ai{fill:url(#af);}.aj{fill:url(#ag);}.ak{fill:url(#ah);}.al{fill:url(#ai);}.am{fill:url(#aj);}.an{fill:url(#ak);}.ao{fill:url(#al);}.ap{fill:url(#am);}.aq{fill:url(#an);}.ar{fill:url(#ao);}.as{fill:url(#ap);}.at{fill:url(#aq);}.au{fill:url(#ar);}.av{fill:url(#as);}.aw{fill:url(#at);}.ax{fill:url(#au);}.ay{fill:url(#av);}.az{fill:url(#aw);}.ba{fill:url(#ax);}.bb{fill:url(#ay);}.bc{fill:url(#az);}.bd{fill:url(#ba);}.be{fill:url(#bb);}.bf{fill:url(#bc);}.bg{fill:url(#bd);}.bh{fill:url(#be);}.bi{fill:url(#bf);}.bj{fill:url(#bg);}.bk{fill:url(#bh);}.bl{fill:url(#bi);}.bm{fill:url(#bj);}.bn{fill:url(#bk);}.bo{fill:url(#bl);}.bp{fill:url(#bm);}.bq{fill:url(#bn);}.br{fill:url(#bo);}.bs{fill:url(#bp);}.bt{fill:url(#bq);}.bu{fill:url(#br);}.bv{fill:url(#bs);}.bw{fill:url(#bt);}.bx{fill:url(#bu);}.by{fill:url(#bv);}.bz{fill:url(#bw);}.ca{fill:url(#bx);}.cb{fill:url(#by);}.cc{fill:url(#bz);}.cd{fill:url(#ca);}.ce{fill:url(#cb);}.cf{fill:url(#cc);}.cg{fill:url(#cd);}.ch{fill:url(#ce);}.ci{fill:url(#cf);}.cj{fill:url(#cg);}.ck{fill:url(#ch);}.cl{fill:url(#ci);}.cm{fill:url(#cj);}.cn{fill:url(#ck);}.co{fill:url(#cl);}.cp{fill:url(#cm);}.cq{fill:url(#cn);}.cr{fill:url(#co);}.cs{fill:url(#cp);}.ct{fill:url(#cq);}.cu{fill:url(#cr);}.cv{fill:url(#cs);}.cw{fill:url(#ct);}.cx{fill:url(#cu);}.cy{fill:url(#cv);}.cz{fill:url(#cw);}.da{fill:url(#cx);}.db{fill:url(#cy);}.dc{fill:url(#cz);}.dd{fill:url(#da);}.de{fill:url(#db);}.df{fill:url(#dc);}.dg{fill:url(#dd);}.dh{fill:url(#de);}.di{fill:url(#df);}.dj{fill:url(#dg);}.dk{fill:url(#dh);}.dl{fill:url(#di);}.dm{fill:url(#dj);}.dn{fill:url(#dk);}.do{fill:url(#dl);}.dp{fill:url(#dm);}.dq{fill:url(#dn);}.dr{fill:url(#do);}.ds{fill:url(#dp);}.dt{fill:url(#dq);}.du{fill:url(#dr);}.dv{fill:url(#ds);}.dw{fill:url(#dt);}.dx{fill:url(#du);}.dy{fill:url(#dv);}.dz{fill:url(#dw);}.ea{fill:url(#dx);}.eb{fill:url(#dy);}.ec{fill:url(#dz);}.ed{fill:url(#ea);}.ee{fill:url(#eb);}.ef{fill:url(#ec);}.eg{fill:url(#ed);}.eh{fill:url(#ee);}.ei{fill:url(#ef);}.ej{fill:url(#eg);}.ek{fill:url(#eh);}.el{fill:url(#ei);}.em{fill:url(#ej);}.en{fill:url(#ek);}.eo{fill:url(#el);}.ep{fill:url(#em);}.eq{fill:url(#en);}.er{fill:url(#eo);}.es{fill:url(#ep);}.et{fill:url(#eq);}.eu{fill:url(#er);}.ev{fill:url(#es);}.ew{fill:url(#et);}.ex{fill:url(#eu);}.ey{fill:#6b6b6b;}.ez{fill:#e61814;}</style><radialGradient id="a" cx="447.47" cy="289.69" r="23.82" gradientTransform="matrix(0.99, 0.1, -0.06, 0.56, 18.83, 81.93)" gradientUnits="userSpaceOnUse"><stop offset="0.55" stop-color="#eae403"/><stop offset="0.6" stop-color="#e5df03" stop-opacity="0.98"/><stop offset="0.66" stop-color="#d8d203" stop-opacity="0.92"/><stop offset="0.72" stop-color="#c1bc02" stop-opacity="0.83"/><stop offset="0.78" stop-color="#a29d02" stop-opacity="0.69"/><stop offset="0.85" stop-color="#797602" stop-opacity="0.52"/><stop offset="0.92" stop-color="#474501" stop-opacity="0.3"/><stop offset="0.99" stop-color="#0e0d00" stop-opacity="0.06"/><stop offset="1" stop-opacity="0"/></radialGradient><radialGradient id="b" cx="446.67" cy="289.13" r="5.08" gradientUnits="userSpaceOnUse"><stop offset="0.63" stop-color="#fff9c5"/><stop offset="0.67" stop-color="#fff9c2" stop-opacity="0.98"/><stop offset="0.72" stop-color="#fef8b8" stop-opacity="0.93"/><stop offset="0.77" stop-color="#fcf6a7" stop-opacity="0.84"/><stop offset="0.82" stop-color="#f9f38f" stop-opacity="0.72"/><stop offset="0.87" stop-color="#f6f071" stop-opacity="0.57"/><stop offset="0.92" stop-color="#f2ec4c" stop-opacity="0.38"/><stop offset="0.97" stop-color="#ede722" stop-opacity="0.16"/><stop offset="1" stop-color="#eae403" stop-opacity="0"/></radialGradient><radialGradient id="c" cx="350.36" cy="390.36" r="6.1" gradientUnits="userSpaceOnUse"><stop offset="0.03" stop-color="#eae400"/><stop offset="0.52" stop-color="#eae45f" stop-opacity="0.75"/><stop offset="0.57" stop-color="#dfd95a" stop-opacity="0.71"/><stop offset="0.66" stop-color="#c0bb4e" stop-opacity="0.61"/><stop offset="0.76" stop-color="#8d8a39" stop-opacity="0.45"/><stop offset="0.89" stop-color="#48461d" stop-opacity="0.23"/><stop offset="1" stop-opacity="0"/></radialGradient><radialGradient id="d" cx="540.68" cy="305.68" r="6.1" xlink:href="#c"/><radialGradient id="e" cx="494.92" cy="299.47" r="4.31" xlink:href="#c"/><radialGradient id="f" cx="720.7" cy="228.34" r="3.33" xlink:href="#c"/><radialGradient id="g" cx="665.27" cy="242.97" r="3.33" xlink:href="#c"/><radialGradient id="h" cx="715.37" cy="219.88" r="1.77" xlink:href="#c"/><radialGradient id="i" cx="451.37" cy="549.98" r="4.31" xlink:href="#c"/><radialGradient id="j" cx="292.13" cy="342.92" r="4.31" xlink:href="#c"/><radialGradient id="k" cx="325.82" cy="334.5" r="4.31" xlink:href="#c"/><radialGradient id="l" cx="466.55" cy="541.94" r="1.82" xlink:href="#c"/><radialGradient id="m" cx="331.59" cy="417.85" r="4.31" xlink:href="#c"/><radialGradient id="n" cx="688.33" cy="265.11" r="7.98" gradientTransform="translate(336.64 -383.27) rotate(40.46)" xlink:href="#c"/><radialGradient id="o" cx="696.87" cy="256.57" r="6.76" xlink:href="#c"/><radialGradient id="p" cx="325.86" cy="398.79" r="6.1" xlink:href="#c"/><radialGradient id="q" cx="564.18" cy="149.6" r="6.21" gradientUnits="userSpaceOnUse"><stop offset="0.03" stop-color="#fff"/><stop offset="0.18" stop-color="#fff" stop-opacity="0.99"/><stop offset="0.31" stop-color="#fff" stop-opacity="0.95"/><stop offset="0.42" stop-color="#fff" stop-opacity="0.88"/><stop offset="0.54" stop-color="#fff" stop-opacity="0.79"/><stop offset="0.64" stop-color="#fff" stop-opacity="0.66"/><stop offset="0.75" stop-color="#fff" stop-opacity="0.51"/><stop offset="0.85" stop-color="#fff" stop-opacity="0.33"/><stop offset="0.94" stop-color="#fff" stop-opacity="0.13"/><stop offset="1" stop-color="#fff" stop-opacity="0"/></radialGradient><radialGradient id="r" cx="524.27" cy="255.57" r="6.21" xlink:href="#q"/><radialGradient id="s" cx="434.49" cy="106.6" r="3.26" xlink:href="#q"/><radialGradient id="t" cx="552.21" cy="171.11" r="3.26" xlink:href="#q"/><radialGradient id="u" cx="660.84" cy="142.29" r="3.26" xlink:href="#q"/><radialGradient id="v" cx="338.49" cy="431.6" r="6.21" xlink:href="#q"/><radialGradient id="w" cx="227.43" cy="377.51" r="6.21" xlink:href="#q"/><radialGradient id="x" cx="260.46" cy="531.15" r="6.21" xlink:href="#q"/><radialGradient id="y" cx="556.42" cy="224.98" r="3.69" xlink:href="#q"/><radialGradient id="z" cx="637.75" cy="288.36" r="3.69" xlink:href="#q"/><radialGradient id="aa" cx="613.02" cy="287.83" r="3.69" xlink:href="#q"/><radialGradient id="ab" cx="635" cy="235.22" r="3.69" xlink:href="#q"/><radialGradient id="ac" cx="640.69" cy="233.64" r="3.69" xlink:href="#q"/><radialGradient id="ad" cx="694.76" cy="188.77" r="3.69" xlink:href="#q"/><radialGradient id="ae" cx="665.05" cy="279.3" r="3.69" xlink:href="#q"/><radialGradient id="af" cx="673.47" cy="235.32" r="3.69" xlink:href="#q"/><radialGradient id="ag" cx="614.5" cy="60.48" r="3.69" xlink:href="#q"/><radialGradient id="ah" cx="766" cy="253.36" r="3.69" xlink:href="#q"/><radialGradient id="ai" cx="752.84" cy="299.03" r="3.69" xlink:href="#q"/><radialGradient id="aj" cx="591.21" cy="77.56" r="3.69" xlink:href="#q"/><radialGradient id="ak" cx="456.66" cy="24.13" r="3.69" xlink:href="#q"/><radialGradient id="al" cx="501.6" cy="192.26" r="3.69" xlink:href="#q"/><radialGradient id="am" cx="501" cy="170.44" r="3.69" xlink:href="#q"/><radialGradient id="an" cx="678.8" cy="351.35" r="3.69" xlink:href="#q"/><radialGradient id="ao" cx="519.62" cy="427.61" r="3.69" xlink:href="#q"/><radialGradient id="ap" cx="563.07" cy="323.56" r="3.69" xlink:href="#q"/><radialGradient id="aq" cx="576.82" cy="435.59" r="3.69" xlink:href="#q"/><radialGradient id="ar" cx="553.88" cy="491.17" r="3.69" xlink:href="#q"/><radialGradient id="as" cx="470.51" cy="521.5" r="3.69" xlink:href="#q"/><radialGradient id="at" cx="456.88" cy="595.32" r="3.69" xlink:href="#q"/><radialGradient id="au" cx="367.54" cy="515.4" r="3.69" xlink:href="#q"/><radialGradient id="av" cx="395.03" cy="380.17" r="1.99" xlink:href="#q"/><radialGradient id="aw" cx="379.29" cy="375.45" r="1.99" xlink:href="#q"/><radialGradient id="ax" cx="225.21" cy="435.81" r="1.99" xlink:href="#q"/><radialGradient id="ay" cx="257.65" cy="397.72" r="1.99" xlink:href="#q"/><radialGradient id="az" cx="275.11" cy="384.14" r="1.99" xlink:href="#q"/><radialGradient id="ba" cx="289.69" cy="420.32" r="1.99" xlink:href="#q"/><radialGradient id="bb" cx="295.78" cy="436.99" r="1.99" xlink:href="#q"/><radialGradient id="bc" cx="308.53" cy="479.2" r="1.99" xlink:href="#q"/><radialGradient id="bd" cx="331.51" cy="492.57" r="1.99" xlink:href="#q"/><radialGradient id="be" cx="294.94" cy="577.03" r="1.99" xlink:href="#q"/><radialGradient id="bf" cx="342.48" cy="551.76" r="1.99" xlink:href="#q"/><radialGradient id="bg" cx="328.08" cy="458.32" r="1.99" xlink:href="#q"/><radialGradient id="bh" cx="181.26" cy="390.32" r="1.99" xlink:href="#q"/><radialGradient id="bi" cx="206.04" cy="336.94" r="1.99" xlink:href="#q"/><radialGradient id="bj" cx="247.99" cy="304.65" r="1.99" xlink:href="#q"/><radialGradient id="bk" cx="416.14" cy="268.1" r="1.99" xlink:href="#q"/><radialGradient id="bl" cx="435.76" cy="194.94" r="1.99" xlink:href="#q"/><radialGradient id="bm" cx="546.67" cy="140.96" r="1.99" xlink:href="#q"/><radialGradient id="bn" cx="449.34" cy="67.58" r="1.99" xlink:href="#q"/><radialGradient id="bo" cx="427.62" cy="23.68" r="1.99" xlink:href="#q"/><radialGradient id="bp" cx="564.75" cy="169.29" r="1.99" xlink:href="#q"/><radialGradient id="bq" cx="694.76" cy="296.37" r="1.99" xlink:href="#q"/><radialGradient id="br" cx="716.21" cy="284.91" r="1.99" xlink:href="#q"/><radialGradient id="bs" cx="633.52" cy="310.47" r="1.99" xlink:href="#q"/><radialGradient id="bt" cx="611.1" cy="384.86" r="1.99" xlink:href="#q"/><radialGradient id="bu" cx="494.12" cy="422.07" r="1.99" xlink:href="#q"/><radialGradient id="bv" cx="609.52" cy="436.7" r="1.99" xlink:href="#q"/><radialGradient id="bw" cx="519.11" cy="344.94" r="1.99" xlink:href="#q"/><radialGradient id="bx" cx="520.31" cy="364.73" r="1.99" xlink:href="#q"/><radialGradient id="by" cx="505.19" cy="366.26" r="2.97" xlink:href="#q"/><radialGradient id="bz" cx="490.97" cy="349.07" r="1.99" xlink:href="#q"/><radialGradient id="ca" cx="477.67" cy="389.86" r="1.99" xlink:href="#q"/><radialGradient id="cb" cx="700.08" cy="207.25" r="1.99" xlink:href="#q"/><radialGradient id="cc" cx="677.68" cy="254.02" r="1.99" xlink:href="#q"/><radialGradient id="cd" cx="729.34" cy="254.47" r="1.99" xlink:href="#q"/><radialGradient id="ce" cx="609.85" cy="173.99" r="1.99" xlink:href="#q"/><radialGradient id="cf" cx="593.89" cy="269.21" r="1.99" xlink:href="#q"/><radialGradient id="cg" cx="721.13" cy="183.75" r="1.99" xlink:href="#q"/><radialGradient id="ch" cx="571.05" cy="57.16" r="1.99" xlink:href="#q"/><radialGradient id="ci" cx="444.74" cy="174.99" r="1.99" xlink:href="#q"/><radialGradient id="cj" cx="447.44" cy="210.51" r="1.99" xlink:href="#q"/><radialGradient id="ck" cx="328.16" cy="225.52" r="1.99" xlink:href="#q"/><radialGradient id="cl" cx="296.07" cy="225.18" r="1.99" xlink:href="#q"/><radialGradient id="cm" cx="308.55" cy="230.49" r="2.52" xlink:href="#q"/><radialGradient id="cn" cx="420.75" cy="254.96" r="1.99" xlink:href="#q"/><radialGradient id="co" cx="486.81" cy="250.47" r="1.99" xlink:href="#q"/><radialGradient id="cp" cx="449.8" cy="118.1" r="1.99" xlink:href="#q"/><radialGradient id="cq" cx="407.89" cy="96.4" r="1.99" xlink:href="#q"/><radialGradient id="cr" cx="451.24" cy="263.55" r="1.99" xlink:href="#q"/><radialGradient id="cs" cx="296.59" cy="271.92" r="1.99" xlink:href="#q"/><radialGradient id="ct" cx="332.01" cy="305.18" r="1.99" xlink:href="#q"/><radialGradient id="cu" cx="388.24" cy="281.89" r="1.99" xlink:href="#q"/><radialGradient id="cv" cx="472.75" cy="332.46" r="2.73" xlink:href="#q"/><radialGradient id="cw" cx="198.61" cy="315.3" r="1.99" xlink:href="#q"/><radialGradient id="cx" cx="319.43" cy="452.53" r="1.25" xlink:href="#q"/><radialGradient id="cy" cx="248.38" cy="309.17" r="1.25" xlink:href="#q"/><radialGradient id="cz" cx="300.09" cy="273.01" r="1.25" xlink:href="#q"/><radialGradient id="da" cx="253.17" cy="304.34" r="1.25" xlink:href="#q"/><radialGradient id="db" cx="472.84" cy="305.34" r="1.25" xlink:href="#q"/><radialGradient id="dc" cx="420.55" cy="268.27" r="1.25" xlink:href="#q"/><radialGradient id="dd" cx="458.21" cy="159.11" r="1.25" xlink:href="#q"/><radialGradient id="de" cx="411.57" cy="71.79" r="1.25" xlink:href="#q"/><radialGradient id="df" cx="499.86" cy="226.03" r="1.25" xlink:href="#q"/><radialGradient id="dg" cx="565.87" cy="164.9" r="1.25" xlink:href="#q"/><radialGradient id="dh" cx="611.4" cy="202.81" r="1.25" xlink:href="#q"/><radialGradient id="di" cx="645.76" cy="196.94" r="1.25" xlink:href="#q"/><radialGradient id="dj" cx="677.24" cy="151.38" r="1.25" xlink:href="#q"/><radialGradient id="dk" cx="599.22" cy="231.72" r="1.25" xlink:href="#q"/><radialGradient id="dl" cx="598.16" cy="235.54" r="1.25" xlink:href="#q"/><radialGradient id="dm" cx="579.48" cy="291.71" r="1.25" xlink:href="#q"/><radialGradient id="dn" cx="575.94" cy="292.08" r="1.25" xlink:href="#q"/><radialGradient id="do" cx="561.78" cy="282.39" r="1.25" xlink:href="#q"/><radialGradient id="dp" cx="557.73" cy="277.2" r="1.25" xlink:href="#q"/><radialGradient id="dq" cx="532.56" cy="256.9" r="1.25" xlink:href="#q"/><radialGradient id="dr" cx="552.48" cy="281.64" r="1.25" xlink:href="#q"/><radialGradient id="ds" cx="594.33" cy="281.62" r="1.25" xlink:href="#q"/><radialGradient id="dt" cx="305.91" cy="408.93" r="1.25" xlink:href="#q"/><radialGradient id="du" cx="312.79" cy="377.26" r="1.25" xlink:href="#q"/><radialGradient id="dv" cx="368.03" cy="383.76" r="1.25" xlink:href="#q"/><radialGradient id="dw" cx="388.2" cy="368.19" r="1.99" xlink:href="#q"/><radialGradient id="dx" cx="396.97" cy="365.5" r="1.99" xlink:href="#q"/><radialGradient id="dy" cx="424.01" cy="379.1" r="1.99" xlink:href="#q"/><radialGradient id="dz" cx="420.6" cy="343.39" r="1.99" xlink:href="#q"/><radialGradient id="ea" cx="472.81" cy="300.66" r="1.99" xlink:href="#q"/><radialGradient id="eb" cx="426.79" cy="328.38" r="1.99" xlink:href="#q"/><radialGradient id="ec" cx="393.77" cy="338.4" r="1.99" xlink:href="#q"/><radialGradient id="ed" cx="331.02" cy="377.11" r="2.61" xlink:href="#q"/><radialGradient id="ee" cx="266.18" cy="450.32" r="3.69" xlink:href="#q"/><radialGradient id="ef" cx="342.12" cy="558.74" r="3.69" xlink:href="#q"/><radialGradient id="eg" cx="252.81" cy="431.48" r="3.69" xlink:href="#q"/><radialGradient id="eh" cx="359.81" cy="355.86" r="3.69" xlink:href="#q"/><radialGradient id="ei" cx="553.59" cy="478.29" r="3.69" xlink:href="#q"/><radialGradient id="ej" cx="584.35" cy="509.76" r="3.69" xlink:href="#q"/><radialGradient id="ek" cx="607.82" cy="487.24" r="3.69" xlink:href="#q"/><radialGradient id="el" cx="442.75" cy="583.69" r="3.69" xlink:href="#q"/><radialGradient id="em" cx="563.88" cy="292.7" r="3.69" xlink:href="#q"/><radialGradient id="en" cx="529.3" cy="262.55" r="3.69" xlink:href="#q"/><radialGradient id="eo" cx="658.72" cy="361.13" r="3.69" xlink:href="#q"/><radialGradient id="ep" cx="487.85" cy="221.38" r="3.69" xlink:href="#q"/><radialGradient id="eq" cx="410.55" cy="240.94" r="3.69" xlink:href="#q"/><radialGradient id="er" cx="436.59" cy="243.53" r="3.69" xlink:href="#q"/><radialGradient id="es" cx="410.35" cy="201.81" r="3.69" xlink:href="#q"/><radialGradient id="et" cx="392.9" cy="210.03" r="3.69" xlink:href="#q"/><radialGradient id="eu" cx="500.8" cy="304.13" r="3.69" xlink:href="#q"/></defs><path class="a" d="M631.8,3.73l174.25,302H728.9L557.31,607.62H289.94L155.6,373.52,328.52,70.24,291.27,2.4S637.12,9.05,631.8,3.73Z"/><polygon class="b" points="55.96 850.37 55.96 894.04 100.21 894.04 100.21 888.04 62.96 888.04 62.96 873.79 100.21 873.79 100.21 866.79 62.96 866.79 62.96 856.54 100.21 856.54 100.21 850.37 55.96 850.37"/><polygon class="b" points="178.21 850.37 178.21 894.04 222.46 894.04 222.46 888.04 185.21 888.04 185.21 873.79 222.46 873.79 222.46 866.79 185.21 866.79 185.21 856.54 222.46 856.54 222.46 850.37 178.21 850.37"/><polygon class="b" points="711.34 850.37 711.34 894.04 755.59 894.04 755.59 888.04 718.34 888.04 718.34 873.79 755.59 873.79 755.59 866.79 718.34 866.79 718.34 856.54 755.59 856.54 755.59 850.37 711.34 850.37"/><path class="b" d="M275.21,874.54c10,0,9-6.75,9-6.75v-11c0-8-9.5-6.42-9.5-6.42h-41.5V894H242V876.29h25L277.71,894h9Zm-33.5-5.75v-12H273s4.5-.5,4.5,3.25v5s.5,3.75-4.25,3.75Z"/><path class="b" d="M622.46,874.54c10,0,9-6.75,9-6.75v-11c0-8-9.5-6.42-9.5-6.42h-41.5V894h8.75V876.29h25L625,894h9ZM589,868.79v-12h31.25s4.5-.5,4.5,3.25v5s.5,3.75-4.25,3.75Z"/><polygon class="b" points="108.21 894.04 108.21 850.37 116.46 850.37 160.96 885.29 160.96 850.25 169.71 850.25 169.71 894.04 159.71 894.04 116.71 860.29 116.71 894.04 108.21 894.04"/><path class="b" d="M343,850.25h-41.5s-9.64-.5-9.64,9.64V887s.27,7,10.64,7H336s8.75,1.5,8.75-9.25v-16h-7.5V884s0,4.25-5,4.25H303s-4.12,0-4.12-4.12V860.29s-.38-3.52,3.87-3.52h40.75Z"/><path class="b" d="M349.21,850.37,379,878v16.1h7.25V878l28.5-27.79h-11.5L386,867.54s-2.5,3.5-7.5-1.25-18.25-15.92-18.25-15.92Z"/><path class="b" d="M759.58,850.37,789.33,878v16.1h7.25V878l28.5-27.79h-11.5l-17.25,17.29s-2.5,3.5-7.5-1.25-18.25-15.92-18.25-15.92Z"/><path class="b" d="M504.21,850.24h-42.5s-9.75-.7-9.75,8.3v9s-.75,7,7.25,7h36.5s4.75-.31,4.75,3.47v6.78a3.92,3.92,0,0,1-4.25,3.5H454.46V894H502s7.25.5,7.25-8.5V875s.75-7.25-7.25-7.25H464s-4.5-.52-4.5-5V860a3,3,0,0,1,3.25-3.27h41.5Z"/><path class="b" d="M516.71,850.25v38.29s-.12,5.57,8,5.57h41.5s7.25.93,7.25-8.57V850.25H564v34.29s.75,3.75-3.75,3.75h-33.5s-2.5-.25-2.5-3.5V850.37Z"/><polygon class="b" points="637.46 850.37 646.46 850.37 670.71 885.79 693.21 850.37 702.71 850.37 674.46 894.14 667.34 894.14 637.46 850.37"/><ellipse class="c" cx="447.47" cy="289.69" rx="29.77" ry="15.74" transform="translate(-85.53 281.87) rotate(-32.08)"/><path class="d" d="M448.74,292.43c-2.83,1.76-6,1.72-7.18-.1s.22-4.73,3-6.5,6-1.73,7.18.1S451.56,290.66,448.74,292.43Z"/><circle class="e" cx="350.36" cy="390.36" r="6.1"/><path class="f" d="M351.56,390.36a1.21,1.21,0,1,1-1.2-1.2A1.21,1.21,0,0,1,351.56,390.36Z"/><path class="g" d="M546.78,305.68a6.1,6.1,0,1,1-6.1-6.1A6.1,6.1,0,0,1,546.78,305.68Z"/><path class="f" d="M541.88,305.68a1.2,1.2,0,1,1-1.2-1.21A1.2,1.2,0,0,1,541.88,305.68Z"/><path class="h" d="M499.22,299.47a4.31,4.31,0,1,1-4.3-4.31A4.31,4.31,0,0,1,499.22,299.47Z"/><path class="f" d="M495.77,299.47a.86.86,0,1,1-.85-.85A.86.86,0,0,1,495.77,299.47Z"/><path class="i" d="M724,228.34A3.33,3.33,0,1,1,720.7,225,3.33,3.33,0,0,1,724,228.34Z"/><path class="f" d="M721.35,228.34a.66.66,0,1,1-.65-.65A.65.65,0,0,1,721.35,228.34Z"/><circle class="j" cx="665.27" cy="242.97" r="3.33"/><path class="f" d="M665.93,243a.66.66,0,0,1-.66.66.66.66,0,1,1,.66-.66Z"/><path class="k" d="M717.15,219.88a1.78,1.78,0,1,1-1.78-1.77A1.78,1.78,0,0,1,717.15,219.88Z"/><path class="f" d="M715.73,219.88a.36.36,0,0,1-.71,0,.36.36,0,0,1,.71,0Z"/><path class="l" d="M455.68,550a4.31,4.31,0,1,1-4.31-4.3A4.31,4.31,0,0,1,455.68,550Z"/><path class="f" d="M452.22,550a.85.85,0,1,1-1.7,0,.85.85,0,0,1,1.7,0Z"/><path class="m" d="M296.43,342.92a4.31,4.31,0,1,1-4.31-4.31A4.31,4.31,0,0,1,296.43,342.92Z"/><path class="f" d="M293,342.92a.86.86,0,1,1-.86-.85A.85.85,0,0,1,293,342.92Z"/><circle class="n" cx="325.82" cy="334.5" r="4.31"/><path class="f" d="M326.67,334.5a.85.85,0,1,1-.85-.85A.85.85,0,0,1,326.67,334.5Z"/><path class="o" d="M468.37,541.94a1.82,1.82,0,1,1-1.82-1.82A1.81,1.81,0,0,1,468.37,541.94Z"/><circle class="f" cx="466.55" cy="541.94" r="0.36"/><path class="p" d="M335.89,417.85a4.31,4.31,0,1,1-4.3-4.3A4.3,4.3,0,0,1,335.89,417.85Z"/><path class="f" d="M332.44,417.85a.85.85,0,1,1-1.7,0,.85.85,0,1,1,1.7,0Z"/><circle class="q" cx="688.33" cy="265.11" r="7.98" transform="translate(-7.42 510.07) rotate(-40.46)"/><path class="f" d="M689.9,265.11a1.58,1.58,0,0,1-3.15,0,1.58,1.58,0,1,1,3.15,0Z"/><circle class="r" cx="696.87" cy="256.57" r="6.76"/><path class="f" d="M698.2,256.57a1.33,1.33,0,1,1-1.33-1.34A1.33,1.33,0,0,1,698.2,256.57Z"/><path class="s" d="M332,398.79a6.1,6.1,0,1,1-6.09-6.1A6.09,6.09,0,0,1,332,398.79Z"/><path class="f" d="M327.06,398.79a1.21,1.21,0,1,1-1.2-1.21A1.2,1.2,0,0,1,327.06,398.79Z"/><path class="t" d="M570.39,149.6a6.21,6.21,0,1,1-6.21-6.2A6.21,6.21,0,0,1,570.39,149.6Z"/><circle class="u" cx="524.27" cy="255.57" r="6.21"/><circle class="v" cx="434.49" cy="106.6" r="3.26"/><circle class="w" cx="552.21" cy="171.11" r="3.26"/><path class="x" d="M664.1,142.29a3.26,3.26,0,1,1-3.26-3.26A3.26,3.26,0,0,1,664.1,142.29Z"/><path class="y" d="M344.7,431.6a6.21,6.21,0,1,1-6.21-6.21A6.21,6.21,0,0,1,344.7,431.6Z"/><path class="z" d="M233.63,377.51a6.21,6.21,0,1,1-6.2-6.21A6.21,6.21,0,0,1,233.63,377.51Z"/><circle class="aa" cx="260.46" cy="531.15" r="6.21"/><circle class="ab" cx="556.42" cy="224.98" r="3.69"/><circle class="ac" cx="637.75" cy="288.36" r="3.69"/><circle class="ad" cx="613.02" cy="287.83" r="3.69"/><circle class="ae" cx="635" cy="235.22" r="3.69"/><circle class="af" cx="640.69" cy="233.64" r="3.69"/><circle class="ag" cx="694.76" cy="188.77" r="3.69"/><circle class="ah" cx="665.05" cy="279.3" r="3.69"/><path class="ai" d="M677.17,235.32a3.7,3.7,0,1,1-3.7-3.69A3.7,3.7,0,0,1,677.17,235.32Z"/><circle class="aj" cx="614.5" cy="60.48" r="3.69"/><circle class="ak" cx="766" cy="253.36" r="3.69"/><circle class="al" cx="752.84" cy="299.03" r="3.69"/><circle class="am" cx="591.21" cy="77.56" r="3.69"/><path class="an" d="M460.35,24.13a3.69,3.69,0,1,1-3.69-3.7A3.69,3.69,0,0,1,460.35,24.13Z"/><circle class="ao" cx="501.6" cy="192.26" r="3.69"/><circle class="ap" cx="501" cy="170.44" r="3.69"/><circle class="aq" cx="678.8" cy="351.35" r="3.69"/><circle class="ar" cx="519.62" cy="427.61" r="3.69"/><circle class="as" cx="563.07" cy="323.56" r="3.69"/><path class="at" d="M580.51,435.59a3.7,3.7,0,1,1-3.69-3.69A3.69,3.69,0,0,1,580.51,435.59Z"/><path class="au" d="M557.57,491.17a3.69,3.69,0,1,1-3.69-3.7A3.69,3.69,0,0,1,557.57,491.17Z"/><circle class="av" cx="470.51" cy="521.5" r="3.69"/><circle class="aw" cx="456.88" cy="595.32" r="3.69"/><circle class="ax" cx="367.54" cy="515.4" r="3.69"/><path class="ay" d="M397,380.17a2,2,0,1,1-2-2A2,2,0,0,1,397,380.17Z"/><path class="az" d="M381.28,375.45a2,2,0,1,1-2-2A2,2,0,0,1,381.28,375.45Z"/><path class="ba" d="M227.2,435.81a2,2,0,1,1-2-2A2,2,0,0,1,227.2,435.81Z"/><path class="bb" d="M259.64,397.72a2,2,0,1,1-2-2A2,2,0,0,1,259.64,397.72Z"/><circle class="bc" cx="275.11" cy="384.14" r="1.99"/><circle class="bd" cx="289.69" cy="420.32" r="1.99"/><path class="be" d="M297.77,437a2,2,0,1,1-2-2A2,2,0,0,1,297.77,437Z"/><circle class="bf" cx="308.53" cy="479.2" r="1.99"/><circle class="bg" cx="331.51" cy="492.57" r="1.99"/><path class="bh" d="M296.93,577a2,2,0,1,1-2-2A2,2,0,0,1,296.93,577Z"/><circle class="bi" cx="342.48" cy="551.76" r="1.99"/><path class="bj" d="M330.07,458.32a2,2,0,1,1-2-2A2,2,0,0,1,330.07,458.32Z"/><path class="bk" d="M183.25,390.32a2,2,0,1,1-2-2A2,2,0,0,1,183.25,390.32Z"/><path class="bl" d="M208,336.94a2,2,0,1,1-2-2A2,2,0,0,1,208,336.94Z"/><path class="bm" d="M250,304.65a2,2,0,1,1-2-2A2,2,0,0,1,250,304.65Z"/><circle class="bn" cx="416.14" cy="268.1" r="1.99"/><circle class="bo" cx="435.76" cy="194.94" r="1.99"/><circle class="bp" cx="546.67" cy="140.96" r="1.99"/><circle class="bq" cx="449.34" cy="67.58" r="1.99"/><path class="br" d="M429.61,23.68a2,2,0,1,1-2-2A2,2,0,0,1,429.61,23.68Z"/><circle class="bs" cx="564.75" cy="169.29" r="1.99"/><circle class="bt" cx="694.76" cy="296.37" r="1.99"/><circle class="bu" cx="716.21" cy="284.91" r="1.99"/><circle class="bv" cx="633.52" cy="310.47" r="1.99"/><circle class="bw" cx="611.1" cy="384.86" r="1.99"/><circle class="bx" cx="494.12" cy="422.07" r="1.99"/><circle class="by" cx="609.52" cy="436.7" r="1.99"/><path class="bz" d="M521.1,344.94a2,2,0,1,1-2-2A2,2,0,0,1,521.1,344.94Z"/><path class="ca" d="M522.29,364.73a2,2,0,1,1-2-2A2,2,0,0,1,522.29,364.73Z"/><path class="cb" d="M508.16,366.26a3,3,0,1,1-3-3A3,3,0,0,1,508.16,366.26Z"/><path class="cc" d="M493,349.07a2,2,0,1,1-2-2A2,2,0,0,1,493,349.07Z"/><circle class="cd" cx="477.67" cy="389.86" r="1.99"/><circle class="ce" cx="700.08" cy="207.25" r="1.99"/><path class="cf" d="M679.67,254a2,2,0,1,1-2-2A2,2,0,0,1,679.67,254Z"/><path class="cg" d="M731.33,254.47a2,2,0,1,1-2-2A2,2,0,0,1,731.33,254.47Z"/><circle class="ch" cx="609.85" cy="173.99" r="1.99"/><circle class="ci" cx="593.89" cy="269.21" r="1.99"/><path class="cj" d="M723.12,183.75a2,2,0,1,1-2-2A2,2,0,0,1,723.12,183.75Z"/><path class="ck" d="M573,57.16a2,2,0,1,1-2-2A2,2,0,0,1,573,57.16Z"/><path class="cl" d="M446.73,175a2,2,0,1,1-2-2A2,2,0,0,1,446.73,175Z"/><path class="cm" d="M449.43,210.51a2,2,0,1,1-2-2A2,2,0,0,1,449.43,210.51Z"/><circle class="cn" cx="328.16" cy="225.52" r="1.99"/><path class="co" d="M298.06,225.18a2,2,0,1,1-2-2A2,2,0,0,1,298.06,225.18Z"/><path class="cp" d="M311.07,230.49a2.53,2.53,0,1,1-2.52-2.52A2.52,2.52,0,0,1,311.07,230.49Z"/><circle class="cq" cx="420.75" cy="254.96" r="1.99"/><circle class="cr" cx="486.81" cy="250.47" r="1.99"/><circle class="cs" cx="449.8" cy="118.1" r="1.99"/><circle class="ct" cx="407.89" cy="96.4" r="1.99"/><circle class="cu" cx="451.24" cy="263.55" r="1.99"/><path class="cv" d="M298.58,271.92a2,2,0,1,1-2-2A2,2,0,0,1,298.58,271.92Z"/><path class="cw" d="M334,305.18a2,2,0,1,1-2-2A2,2,0,0,1,334,305.18Z"/><circle class="cx" cx="388.24" cy="281.89" r="1.99"/><path class="cy" d="M475.48,332.46a2.73,2.73,0,1,1-2.73-2.73A2.73,2.73,0,0,1,475.48,332.46Z"/><circle class="cz" cx="198.61" cy="315.3" r="1.99"/><circle class="da" cx="319.43" cy="452.53" r="1.25"/><circle class="db" cx="248.38" cy="309.17" r="1.25"/><circle class="dc" cx="300.09" cy="273.01" r="1.25"/><circle class="dd" cx="253.17" cy="304.34" r="1.25"/><circle class="de" cx="472.84" cy="305.34" r="1.25"/><circle class="df" cx="420.55" cy="268.27" r="1.25"/><path class="dg" d="M459.46,159.11a1.25,1.25,0,1,1-1.25-1.25A1.25,1.25,0,0,1,459.46,159.11Z"/><circle class="dh" cx="411.57" cy="71.79" r="1.25"/><path class="di" d="M501.11,226a1.25,1.25,0,1,1-1.25-1.25A1.25,1.25,0,0,1,501.11,226Z"/><path class="dj" d="M567.12,164.9a1.25,1.25,0,1,1-1.25-1.25A1.25,1.25,0,0,1,567.12,164.9Z"/><circle class="dk" cx="611.4" cy="202.81" r="1.25"/><circle class="dl" cx="645.76" cy="196.94" r="1.25"/><path class="dm" d="M678.49,151.38a1.25,1.25,0,1,1-1.25-1.25A1.25,1.25,0,0,1,678.49,151.38Z"/><circle class="dn" cx="599.22" cy="231.72" r="1.25"/><path class="do" d="M599.41,235.54a1.25,1.25,0,1,1-1.25-1.25A1.25,1.25,0,0,1,599.41,235.54Z"/><circle class="dp" cx="579.48" cy="291.71" r="1.25"/><circle class="dq" cx="575.94" cy="292.08" r="1.25"/><circle class="dr" cx="561.78" cy="282.39" r="1.25"/><path class="ds" d="M559,277.2a1.25,1.25,0,1,1-1.25-1.25A1.25,1.25,0,0,1,559,277.2Z"/><circle class="dt" cx="532.56" cy="256.9" r="1.25"/><circle class="du" cx="552.48" cy="281.64" r="1.25"/><path class="dv" d="M595.58,281.62a1.25,1.25,0,1,1-1.25-1.25A1.25,1.25,0,0,1,595.58,281.62Z"/><path class="dw" d="M307.16,408.93a1.25,1.25,0,1,1-1.25-1.25A1.25,1.25,0,0,1,307.16,408.93Z"/><path class="dx" d="M314,377.26a1.25,1.25,0,1,1-1.25-1.25A1.25,1.25,0,0,1,314,377.26Z"/><circle class="dy" cx="368.03" cy="383.76" r="1.25"/><circle class="dz" cx="388.2" cy="368.19" r="1.99"/><circle class="ea" cx="396.97" cy="365.5" r="1.99"/><circle class="eb" cx="424.01" cy="379.1" r="1.99"/><path class="ec" d="M422.59,343.39a2,2,0,1,1-2-2A2,2,0,0,1,422.59,343.39Z"/><circle class="ed" cx="472.81" cy="300.66" r="1.99"/><path class="ee" d="M428.78,328.38a2,2,0,1,1-2-2A2,2,0,0,1,428.78,328.38Z"/><circle class="ef" cx="393.77" cy="338.4" r="1.99"/><circle class="eg" cx="331.02" cy="377.11" r="2.61"/><circle class="eh" cx="266.18" cy="450.32" r="3.69"/><circle class="ei" cx="342.12" cy="558.74" r="3.69"/><circle class="ej" cx="252.81" cy="431.48" r="3.69"/><path class="ek" d="M363.5,355.86a3.69,3.69,0,1,1-3.69-3.69A3.69,3.69,0,0,1,363.5,355.86Z"/><circle class="el" cx="553.59" cy="478.29" r="3.69"/><path class="em" d="M588,509.76a3.7,3.7,0,1,1-3.69-3.69A3.69,3.69,0,0,1,588,509.76Z"/><circle class="en" cx="607.82" cy="487.24" r="3.69"/><circle class="eo" cx="442.75" cy="583.69" r="3.69"/><circle class="ep" cx="563.88" cy="292.7" r="3.69"/><circle class="eq" cx="529.3" cy="262.55" r="3.69"/><circle class="er" cx="658.72" cy="361.13" r="3.69"/><circle class="es" cx="487.85" cy="221.38" r="3.69"/><circle class="et" cx="410.55" cy="240.94" r="3.69"/><circle class="eu" cx="436.59" cy="243.53" r="3.69"/><path class="ev" d="M414,201.81a3.7,3.7,0,1,1-3.69-3.7A3.69,3.69,0,0,1,414,201.81Z"/><circle class="ew" cx="392.9" cy="210.03" r="3.69"/><circle class="ex" cx="500.8" cy="304.13" r="3.69"/><polygon class="ey" points="213.59 791.18 213.59 796.51 235.92 796.51 235.92 834.85 244.25 834.85 244.25 796.85 264.92 796.85 264.92 791.18 213.59 791.18"/><polygon class="ey" points="273.92 791.18 273.92 834.85 281.17 834.85 281.17 814.35 319.92 814.35 319.92 834.85 326.42 834.85 326.42 791.18 319.92 791.18 319.92 807.35 281.42 807.35 281.42 791.18 273.92 791.18"/><polygon class="ey" points="339.67 791.18 339.67 834.85 383.92 834.85 383.92 828.85 346.67 828.85 346.67 814.6 383.92 814.6 383.92 807.6 346.67 807.6 346.67 797.35 383.92 797.35 383.92 791.18 339.67 791.18"/><path class="ey" d="M472.42,791.18h-45.5v43.66h46.25s10.25.5,10.25-12.25V800.84S483.29,791.18,472.42,791.18Zm4.75,10.91v21c0,6.5-6.5,6-6.5,6h-37v-31.5h36.75C477.92,797.59,477.17,802.09,477.17,802.09Z"/><polygon class="ey" points="486.67 834.85 515.42 791.18 523.42 791.18 552.67 834.85 543.67 834.85 519.67 797.6 507.67 817.35 516.92 817.35 516.92 824.35 502.17 824.35 495.67 834.85 486.67 834.85"/><path class="ey" d="M599.67,815.34c10,0,9-6.75,9-6.75v-11c0-8-9.5-6.41-9.5-6.41h-41.5v43.67h8.75V817.09h25l10.75,17.76h9Zm-33.5-5.75v-12h31.25s4.5-.5,4.5,3.25v5s.5,3.75-4.25,3.75Z"/><path class="ey" d="M616.92,834.85V791.18h7.25v18.41h11.75s2.25,1.25,6.5-3.25,13.75-15.16,13.75-15.16h8.75l-14.75,18.41s-1.25,1.5-4.5,1.75a55.65,55.65,0,0,1,5.25,4.75c3.25,3.25,16,18.75,16,18.75h-10.5l-14.5-16s-.5-2.25-6.5-2.25H624.67v18.26Z"/><polygon class="ez" points="764.81 374.85 841.96 374.85 630.47 741.97 208.8 741.97 1.3 369.52 212.79 6.39 252.7 72.9 78.45 373.52 248.71 678.12 593.22 678.12 764.81 374.85"/></svg>