<?xml version="1.0" encoding="utf-8"?>
<!-- Generator: Adobe Illustrator 24.3.0, SVG Export Plug-In . SVG Version: 6.00 Build 0)  -->
<svg version="1.1" xmlns="http://www.w3.org/2000/svg" xmlns:xlink="http://www.w3.org/1999/xlink" x="0px" y="0px" width="820px"
	 height="368.029px" viewBox="0 0 820 368.029" style="enable-background:new 0 0 820 368.029;" xml:space="preserve">
<style type="text/css">
	.st0{display:none;}
	.st1{display:inline;fill:#333333;}
	.st2{display:inline;}
	.st3{opacity:0.4;}
	.st4{fill:#231F20;}
	.st5{fill:#FFFFFF;}
	.st6{display:inline;fill:#FFFFFF;}
	.st7{font-family:'Gotham-Medium';}
	.st8{font-size:38px;}
	.st9{letter-spacing:2;}
	.st10{display:inline;fill:#00A9D7;}
	.st11{display:inline;fill:#FFA400;}
	.st12{display:inline;fill:#318DDE;}
	.st13{display:inline;fill:none;}
	.st14{display:inline;fill:#1CD0BB;}
	.st15{fill:none;}
	.st16{display:inline;filter:url(#Adobe_OpacityMaskFilter);}
	.st17{fill:#070707;}
	.st18{fill:#0F0F0F;}
	.st19{fill:#161616;}
	.st20{fill:#1E1E1E;}
	.st21{fill:#252525;}
	.st22{fill:#2C2C2C;}
	.st23{fill:#343434;}
	.st24{fill:#3B3B3B;}
	.st25{fill:#434343;}
	.st26{fill:#4A4A4A;}
	.st27{fill:#515151;}
	.st28{fill:#595959;}
	.st29{fill:#606060;}
	.st30{fill:#686868;}
	.st31{fill:#6F6F6F;}
	.st32{fill:#767676;}
	.st33{fill:#7E7E7E;}
	.st34{fill:#858585;}
	.st35{fill:#8D8D8D;}
	.st36{fill:#949494;}
	.st37{fill:#9B9B9B;}
	.st38{fill:#A3A3A3;}
	.st39{fill:#AAAAAA;}
	.st40{fill:#B2B2B2;}
	.st41{fill:#B9B9B9;}
	.st42{fill:#C0C0C0;}
	.st43{fill:#C8C8C8;}
	.st44{fill:#CFCFCF;}
	.st45{fill:#D7D7D7;}
	.st46{fill:#DEDEDE;}
	.st47{fill:#E6E6E6;}
	.st48{display:inline;mask:url(#Shadow_2_);fill:#B3B3B3;}
	.st49{display:inline;fill:#B800E3;}
	.st50{display:inline;fill:none;stroke:#333333;stroke-width:3;stroke-miterlimit:10;}
	.st51{font-size:17px;}
	.st52{letter-spacing:1;}
	.st53{display:inline;fill:#F540DA;}
	.st54{font-family:'BlackJack';}
	.st55{font-size:61.7922px;}
	.st56{fill:#333333;}
	.st57{fill:#00A9D7;}
	.st58{fill:#FFA400;}
	.st59{fill:#318DDE;}
	.st60{fill:#1CD0BB;}
	.st61{filter:url(#Adobe_OpacityMaskFilter_1_);}
	.st62{mask:url(#Shadow_4_);fill:#B3B3B3;}
	.st63{fill:#B800E3;}
</style>
<g id="MAIN_GRAPHICS_copy" class="st0">
	<rect x="164.07" y="161.982" class="st1" width="136.674" height="46.888"/>
	<rect x="495.281" y="161.982" class="st1" width="136.674" height="46.888"/>
	<text transform="matrix(1 0 0 1 523.4572 197.8972)" class="st6 st7 st8 st9">OPS</text>
	<text transform="matrix(1 0 0 1 187.7761 197.8971)" class="st6 st7 st8 st9">DEV</text>
	<path class="st10" d="M337.542,70.669c-33.274-27.205-69.328-40.999-107.156-40.998c-0.009,0-0.019,0-0.028,0
		c-30.86,0-60.695,9.022-86.278,26.09c-4.335,2.89-7.286,7.295-8.307,12.406c-1.021,5.109,0.008,10.311,2.898,14.646
		c2.891,4.334,7.296,7.285,12.405,8.306c5.111,1.023,10.313-0.008,14.644-2.898c19.175-12.777,41.536-19.533,64.663-19.538
		c28.511,0.007,56.265,10.843,82.483,32.203c3.516,2.87,7.821,4.398,12.299,4.398c0.664,0,1.331-0.034,2-0.102
		c5.185-0.524,9.854-3.037,13.146-7.072C347.112,89.782,345.868,77.47,337.542,70.669z"/>
	<path class="st11" d="M488.503,269.945c-22.961-18.723-40.427-42.185-51.038-58.576c-12.202-18.813-18.626-33.137-18.914-33.784
		c-0.017-0.037-0.033-0.073-0.049-0.106c-0.898-2.028-7.729-17.128-20.582-37.252c-17.979-28.107-38.294-51.509-60.379-69.558
		l-2.66-2.173l-3.408,0.432c-3.276,0.415-15.811,1.599-15.937,1.611l-7.932,0.749l0.715,7.935
		c0.039,0.426,0.949,10.501,1.664,16.428l0.386,3.203l2.5,2.039c22.951,18.715,40.421,42.181,51.038,58.574
		c12.172,18.774,18.626,33.143,18.882,33.716l0.065,0.147c0.753,1.695,7.732,17.138,20.599,37.284
		c17.979,28.105,38.293,51.507,60.381,69.556c3.516,2.872,7.822,4.4,12.301,4.4c0.663,0,1.33-0.034,1.998-0.101
		c5.184-0.524,9.854-3.035,13.149-7.072C498.083,289.064,496.838,276.752,488.503,269.945z"/>
	<path class="st12" d="M662.701,288.023c-2.891-4.336-7.297-7.287-12.407-8.308s-10.31,0.008-14.644,2.898
		c-19.174,12.779-41.535,19.535-64.662,19.538c-28.512-0.006-56.266-10.843-82.488-32.21l-2.772-2.258l-3.531,0.559
		c-2.361,0.374-10.636,1.144-15.622,1.57l-7.937,0.678l0.645,7.94c0.035,0.437,0.877,10.755,1.688,16.635l0.429,3.112l2.432,1.989
		c33.273,27.207,69.312,41,107.123,41c0.018,0,0.035,0,0.055,0c30.861-0.001,60.703-9.024,86.289-26.093
		c4.334-2.891,7.283-7.297,8.304-12.407C666.621,297.555,665.591,292.354,662.701,288.023z"/>
	<path id="SVGID_x5F_1_x5F_" class="st13" d="M658.622,325.616c-1.021,5.109-3.97,9.516-8.304,12.407
		c-25.586,17.069-55.428,26.092-86.289,26.093c-0.02,0-0.037,0-0.055,0c-37.811,0-73.85-13.793-107.123-41l-2.432-1.989
		l-0.429-3.112c-0.811-5.88-1.652-16.199-1.688-16.635l-0.645-7.94l7.937-0.678c4.986-0.426,13.261-1.196,15.622-1.57l3.531-0.559
		l2.772,2.258c26.223,21.367,53.977,32.204,82.488,32.21c23.127-0.003,45.488-6.759,64.662-19.538
		c4.334-2.89,9.533-3.919,14.644-2.898s9.517,3.972,12.407,8.308C658.612,315.304,659.643,320.505,658.622,325.616z"/>
	<text class="st2">	<textPath  xlink:href="#SVGID_x5F_1_x5F_" startOffset="19.4672%">
<tspan  class="st5 st7 st51" style="letter-spacing:62;">MONITOR</tspan>	</textPath>
</text>
	<path class="st14" d="M657.292,55.757c-3.218-2.143-6.955-3.275-10.811-3.275c-6.543,0.002-12.613,3.25-16.239,8.687
		c-5.967,8.949-3.541,21.084,5.404,27.051c32.608,21.763,52.075,58.099,52.074,97.199c0.001,39.099-19.466,75.435-52.074,97.199
		l-2.778,1.854l-0.635,3.28c-0.901,4.661-3.153,15.775-3.176,15.887l-1.587,7.833l7.831,1.595c0,0,8.801,1.792,16.018,3.204
		l3.231,0.631l2.739-1.825c43.483-28.974,69.444-77.443,69.445-129.658C726.735,133.204,700.775,84.733,657.292,55.757z"/>
	<path class="st10" d="M660.05,57.599l-2.755-1.838c-25.587-17.069-55.432-26.092-86.306-26.092c-0.011,0-0.016,0-0.027,0
		c-37.811,0-73.858,13.795-107.125,40.994c-8.333,6.801-9.58,19.114-2.779,27.446c3.294,4.038,7.964,6.551,13.147,7.076
		c0.67,0.068,1.338,0.102,2.003,0.102c4.477,0,8.781-1.527,12.291-4.393c26.227-21.366,53.98-32.204,82.488-32.21
		c23.13,0.004,45.49,6.76,64.664,19.539l2.737,1.825l3.229-0.63c11.724-2.285,15.931-3.184,16.104-3.221l7.715-1.653L660.05,57.599z
		"/>
	<g id="Shape_x5F_Part_17_" class="st2">
		<path id="SVGID_x5F_2_x5F_" class="st15" d="M653.186,79.378c1.086,5.429,3.19,15.958,3.19,15.958s-4.173,0.894-15.958,3.191
			c-19.798-13.194-43.499-20.877-69.1-20.881c-34.262,0.008-63.367,14.313-87.542,34.008c-4.924,4.019-12.172,3.285-16.19-1.641
			c-4.018-4.923-3.285-12.171,1.64-16.19c26.833-21.938,61.169-39.199,102.093-39.192C601.573,54.631,629.772,63.758,653.186,79.378
			z"/>
		<text>		<textPath  xlink:href="#SVGID_x5F_2_x5F_" startOffset="10267.8037%">
<tspan  class="st5 st7 st51" style="letter-spacing:62;">DEPLOY</tspan>		</textPath>
</text>
	</g>
	<defs>
		<filter id="Adobe_OpacityMaskFilter" filterUnits="userSpaceOnUse" x="384.25" y="153.89" width="32.874" height="63.049">
			<feColorMatrix  type="matrix" values="1 0 0 0 0  0 1 0 0 0  0 0 1 0 0  0 0 0 1 0"/>
		</filter>
	</defs>
	<mask maskUnits="userSpaceOnUse" x="384.25" y="153.89" width="32.874" height="63.049" id="Shadow_2_" class="st2">
		<g style="filter:url(#Adobe_OpacityMaskFilter);">
			<g>
				<path d="M411.264,180.885c0.317,0.714,2.294,5.063,5.859,11.749l-0.031,0.068c-0.581,1.302-4.863,10.772-12.673,24.237
					c-9.327-15.676-14.121-26.562-14.269-26.893c0,0-0.004-0.009-0.042-0.096c-0.318-0.714-2.295-5.062-5.859-11.747l0.026-0.06
					l0.01-0.025c0.944-2.115,5.145-11.278,12.663-24.228c9.329,15.679,14.125,26.569,14.271,26.9
					C411.22,180.79,411.224,180.797,411.264,180.885z"/>
				<path class="st17" d="M397.07,154.098c9.172,15.426,13.91,26.163,14.105,26.594c0,0.001,0.004,0.008,0.044,0.094
					c0.208,0.458,0.934,2.066,2.171,4.574c0.019,0.038,0.037,0.075,0.057,0.116c0.902,1.827,2.09,4.168,3.557,6.926
					c0,0-0.03,0.067-0.03,0.067c-0.579,1.295-4.897,10.845-12.674,24.264c-9.169-15.424-13.907-26.156-14.103-26.587
					c0-0.001-0.004-0.01-0.042-0.095c-0.205-0.459-0.935-2.065-2.172-4.573c-0.019-0.038-0.037-0.076-0.057-0.116
					c-0.902-1.826-2.089-4.167-3.556-6.925c0,0,0.025-0.059,0.025-0.059c0,0,0.01-0.024,0.01-0.025
					C385.335,176.272,389.574,167.019,397.07,154.098z"/>
				<path class="st18" d="M397.19,154.306c9.014,15.173,13.696,25.756,13.939,26.287c0.001,0.001,0.005,0.009,0.043,0.093
					c0.23,0.504,0.948,2.094,2.145,4.521c0.018,0.036,0.036,0.073,0.057,0.116c0.878,1.779,2.05,4.096,3.51,6.846
					c0,0.001-0.029,0.065-0.029,0.066c-0.577,1.288-4.931,10.917-12.676,24.29c-9.011-15.171-13.693-25.749-13.937-26.28
					c-0.001-0.001-0.004-0.011-0.041-0.094c-0.227-0.506-0.948-2.093-2.146-4.521c-0.018-0.036-0.036-0.073-0.057-0.116
					c-0.874-1.781-2.05-4.095-3.509-6.845c0,0,0.025-0.057,0.025-0.057c0,0,0.009-0.024,0.009-0.024
					C385.439,176.542,389.717,167.198,397.19,154.306z"/>
				<path class="st19" d="M397.311,154.513c8.856,14.921,13.482,25.35,13.773,25.981c0.001,0.002,0.005,0.01,0.042,0.092
					c0.252,0.551,0.961,2.121,2.119,4.469c0.017,0.035,0.035,0.071,0.056,0.115c0.85,1.734,2.011,4.023,3.463,6.766
					c0,0.001-0.028,0.063-0.029,0.064c-0.575,1.281-4.964,10.99-12.677,24.317c-8.854-14.918-13.479-25.343-13.771-25.974
					c-0.001-0.002-0.005-0.012-0.041-0.092c-0.249-0.553-0.962-2.121-2.12-4.468c-0.017-0.035-0.035-0.071-0.056-0.115
					c-0.848-1.735-2.01-4.023-3.462-6.765c0-0.001,0.024-0.056,0.024-0.056c0,0,0.009-0.023,0.009-0.023
					C385.544,176.811,389.86,167.377,397.311,154.513z"/>
				<path class="st20" d="M397.431,154.721c8.698,14.668,13.268,24.943,13.606,25.674c0.001,0.002,0.005,0.011,0.042,0.09
					c0.273,0.598,0.975,2.149,2.093,4.417c0.017,0.034,0.034,0.069,0.056,0.114c0.825,1.687,1.971,3.951,3.417,6.687
					c-0.001,0.001-0.028,0.062-0.028,0.063c-0.573,1.274-4.998,11.063-12.678,24.343c-8.696-14.665-13.265-24.937-13.605-25.668
					c-0.001-0.002-0.005-0.013-0.04-0.091c-0.27-0.599-0.976-2.149-2.094-4.416c-0.017-0.034-0.034-0.069-0.056-0.114
					c-0.822-1.688-1.971-3.951-3.416-6.686c0-0.001,0.023-0.054,0.024-0.055c0,0,0.009-0.022,0.009-0.022
					C385.649,177.08,390.003,167.556,397.431,154.721z"/>
				<path class="st21" d="M397.552,154.929c8.54,14.415,13.053,24.537,13.44,25.368c0.001,0.003,0.006,0.012,0.041,0.089
					c0.296,0.644,0.989,2.177,2.067,4.364c0.016,0.033,0.033,0.066,0.056,0.113c0.8,1.64,1.932,3.879,3.37,6.607
					c-0.001,0.001-0.027,0.06-0.028,0.062c-0.572,1.267-5.032,11.135-12.68,24.37c-8.538-14.413-13.05-24.53-13.439-25.362
					c-0.001-0.003-0.005-0.014-0.04-0.09c-0.292-0.646-0.989-2.177-2.068-4.363c-0.016-0.033-0.033-0.067-0.055-0.114
					c-0.797-1.642-1.931-3.879-3.369-6.606c0-0.001,0.023-0.052,0.023-0.053c0,0,0.008-0.021,0.008-0.022
					C385.753,177.349,390.146,167.735,397.552,154.929z"/>
				<path class="st22" d="M397.673,155.136c8.383,14.162,12.839,24.13,13.274,25.062c0.002,0.004,0.006,0.013,0.041,0.088
					c0.318,0.69,1.002,2.205,2.041,4.312c0.015,0.031,0.031,0.064,0.055,0.113c0.776,1.593,1.892,3.807,3.323,6.527
					c-0.001,0.002-0.026,0.058-0.027,0.06c-0.57,1.26-5.065,11.208-12.681,24.396c-8.38-14.16-12.836-24.124-13.273-25.055
					c-0.002-0.004-0.006-0.015-0.039-0.088c-0.314-0.693-1.003-2.205-2.041-4.311c-0.015-0.031-0.031-0.065-0.055-0.113
					c-0.772-1.595-1.892-3.806-3.322-6.526c0.001-0.001,0.022-0.051,0.023-0.052c0,0,0.008-0.021,0.008-0.021
					C385.858,177.618,390.289,167.914,397.673,155.136z"/>
				<path class="st23" d="M397.793,155.344c8.225,13.91,12.625,23.724,13.108,24.755c0.002,0.004,0.007,0.014,0.04,0.086
					c0.341,0.737,1.016,2.233,2.015,4.259c0.015,0.03,0.03,0.062,0.055,0.112c0.751,1.546,1.853,3.735,3.276,6.447
					c-0.001,0.002-0.026,0.057-0.027,0.059c-0.568,1.252-5.099,11.28-12.683,24.422c-8.223-13.907-12.622-23.718-13.106-24.749
					c-0.002-0.004-0.006-0.016-0.039-0.087c-0.336-0.739-1.017-2.233-2.015-4.259c-0.015-0.03-0.03-0.062-0.054-0.112
					c-0.747-1.548-1.853-3.734-3.275-6.446c0.001-0.001,0.021-0.049,0.022-0.051c0,0,0.008-0.02,0.008-0.02
					C385.963,177.888,390.432,168.093,397.793,155.344z"/>
				<path class="st24" d="M397.914,155.552c8.067,13.657,12.411,23.318,12.941,24.449c0.002,0.005,0.007,0.015,0.04,0.085
					c0.363,0.783,1.03,2.261,1.989,4.207c0.014,0.029,0.029,0.06,0.054,0.111c0.727,1.499,1.813,3.663,3.229,6.368
					c-0.001,0.002-0.025,0.055-0.026,0.058c-0.566,1.245-5.133,11.353-12.684,24.449c-8.065-13.655-12.408-23.312-12.94-24.443
					c-0.002-0.005-0.007-0.017-0.038-0.086c-0.357-0.786-1.03-2.261-1.989-4.206c-0.014-0.029-0.029-0.06-0.054-0.112
					c-0.722-1.501-1.813-3.662-3.228-6.367c0.001-0.001,0.021-0.048,0.022-0.049c0,0,0.008-0.019,0.008-0.02
					C386.068,178.157,390.575,168.272,397.914,155.552z"/>
				<path class="st25" d="M398.034,155.76c7.909,13.404,12.196,22.911,12.775,24.143c0.003,0.005,0.008,0.016,0.039,0.084
					c0.386,0.83,1.043,2.289,1.963,4.155c0.014,0.028,0.028,0.057,0.054,0.111c0.703,1.452,1.774,3.59,3.182,6.288
					c-0.001,0.002-0.024,0.053-0.026,0.056c-0.564,1.238-5.166,11.425-12.685,24.475c-7.907-13.402-12.194-22.905-12.774-24.137
					c-0.003-0.005-0.007-0.018-0.038-0.085c-0.379-0.833-1.044-2.288-1.963-4.154c-0.014-0.028-0.028-0.058-0.053-0.111
					c-0.698-1.454-1.774-3.59-3.182-6.287c0.001-0.002,0.02-0.046,0.021-0.048c0,0,0.007-0.018,0.007-0.019
					C386.172,178.426,390.718,168.451,398.034,155.76z"/>
				<path class="st26" d="M398.155,155.967c7.751,13.151,11.982,22.505,12.609,23.836c0.003,0.006,0.008,0.017,0.039,0.083
					c0.408,0.876,1.057,2.317,1.936,4.102c0.013,0.026,0.027,0.055,0.053,0.11c0.678,1.405,1.734,3.518,3.135,6.208
					c-0.001,0.003-0.023,0.052-0.025,0.055c-0.562,1.231-5.2,11.498-12.687,24.502c-7.75-13.149-11.98-22.499-12.608-23.83
					c-0.003-0.006-0.008-0.018-0.037-0.083c-0.401-0.879-1.058-2.316-1.937-4.101c-0.013-0.026-0.027-0.056-0.053-0.11
					c-0.673-1.407-1.734-3.518-3.135-6.207c0.001-0.002,0.02-0.045,0.021-0.047c0,0,0.007-0.018,0.007-0.018
					C386.277,178.695,390.861,168.63,398.155,155.967z"/>
				<path class="st27" d="M398.275,156.175c7.594,12.899,11.768,22.098,12.443,23.53c0.003,0.007,0.009,0.018,0.038,0.081
					c0.429,0.923,1.071,2.345,1.91,4.05c0.012,0.025,0.026,0.053,0.053,0.109c0.654,1.357,1.695,3.446,3.089,6.128
					c-0.001,0.003-0.023,0.05-0.024,0.054c-0.561,1.224-5.234,11.571-12.688,24.528c-7.592-12.896-11.766-22.093-12.442-23.524
					c-0.003-0.007-0.008-0.019-0.037-0.082c-0.423-0.926-1.071-2.344-1.911-4.049c-0.012-0.025-0.026-0.054-0.052-0.11
					c-0.649-1.36-1.695-3.446-3.088-6.127c0.001-0.002,0.019-0.043,0.02-0.045c0,0,0.007-0.017,0.007-0.017
					C386.382,178.965,391.004,168.809,398.275,156.175z"/>
				<path class="st28" d="M398.396,156.383c7.436,12.646,11.554,21.692,12.277,23.224c0.003,0.007,0.009,0.019,0.037,0.08
					c0.451,0.97,1.084,2.372,1.884,3.997c0.012,0.024,0.025,0.051,0.052,0.109c0.63,1.31,1.655,3.374,3.042,6.049
					c-0.002,0.003-0.022,0.049-0.024,0.052c-0.559,1.217-5.267,11.643-12.69,24.555c-7.434-12.644-11.552-21.686-12.276-23.218
					c-0.003-0.007-0.009-0.02-0.036-0.081c-0.445-0.972-1.085-2.372-1.885-3.997c-0.012-0.024-0.024-0.051-0.052-0.109
					c-0.625-1.312-1.655-3.374-3.041-6.048c0.001-0.002,0.018-0.041,0.019-0.044c0,0,0.006-0.016,0.007-0.017
					C386.486,179.234,391.147,168.988,398.396,156.383z"/>
				<path class="st29" d="M398.517,156.591c7.278,12.393,11.339,21.285,12.11,22.917c0.004,0.008,0.009,0.02,0.037,0.079
					c0.473,1.016,1.098,2.4,1.858,3.945c0.011,0.023,0.023,0.048,0.052,0.108c0.606,1.263,1.616,3.302,2.995,5.969
					c-0.002,0.003-0.021,0.047-0.023,0.051c-0.557,1.21-5.301,11.716-12.691,24.581c-7.276-12.391-11.337-21.28-12.11-22.912
					c-0.004-0.008-0.009-0.021-0.036-0.079c-0.467-1.019-1.099-2.4-1.859-3.944c-0.011-0.023-0.023-0.049-0.051-0.108
					c-0.601-1.265-1.616-3.301-2.994-5.968c0.001-0.002,0.018-0.04,0.019-0.043c0,0,0.006-0.015,0.006-0.016
					C386.591,179.503,391.29,169.167,398.517,156.591z"/>
				<path class="st30" d="M398.637,156.798c7.12,12.14,11.125,20.879,11.944,22.611c0.004,0.009,0.01,0.021,0.036,0.078
					c0.495,1.063,1.112,2.428,1.832,3.893c0.01,0.021,0.022,0.046,0.052,0.107c0.582,1.215,1.576,3.23,2.948,5.889
					c-0.002,0.004-0.021,0.045-0.023,0.05c-0.555,1.203-5.334,11.788-12.692,24.608c-7.119-12.138-11.123-20.874-11.944-22.605
					c-0.004-0.009-0.01-0.022-0.035-0.078c-0.489-1.066-1.112-2.428-1.833-3.892c-0.01-0.021-0.022-0.047-0.051-0.108
					c-0.577-1.218-1.577-3.229-2.948-5.888c0.001-0.003,0.017-0.038,0.018-0.041c0,0,0.006-0.015,0.006-0.015
					C386.696,179.772,391.433,169.346,398.637,156.798z"/>
				<path class="st31" d="M398.758,157.006c6.962,11.888,10.911,20.473,11.778,22.304c0.004,0.009,0.01,0.022,0.036,0.076
					c0.517,1.109,1.125,2.456,1.806,3.84c0.01,0.02,0.021,0.044,0.051,0.106c0.559,1.168,1.537,3.158,2.901,5.809
					c-0.002,0.004-0.02,0.044-0.022,0.048c-0.553,1.196-5.368,11.861-12.694,24.634c-6.961-11.886-10.909-20.468-11.777-22.299
					c-0.004-0.009-0.01-0.023-0.035-0.077c-0.511-1.112-1.126-2.456-1.807-3.839c-0.01-0.02-0.021-0.045-0.05-0.107
					c-0.553-1.17-1.537-3.157-2.901-5.808c0.001-0.003,0.016-0.037,0.018-0.04c0,0,0.006-0.014,0.006-0.015
					C386.8,180.042,391.576,169.525,398.758,157.006z"/>
				<path class="st32" d="M398.878,157.214c6.804,11.635,10.697,20.066,11.612,21.998c0.005,0.01,0.011,0.023,0.035,0.075
					c0.539,1.156,1.139,2.484,1.78,3.788c0.009,0.019,0.02,0.042,0.051,0.106c0.535,1.12,1.497,3.085,2.854,5.73
					c-0.002,0.004-0.019,0.042-0.022,0.047c-0.551,1.189-5.402,11.933-12.695,24.661c-6.803-11.633-10.695-20.061-11.611-21.993
					c-0.005-0.01-0.011-0.024-0.034-0.076c-0.533-1.159-1.14-2.484-1.78-3.787c-0.009-0.019-0.02-0.043-0.05-0.106
					c-0.529-1.123-1.498-3.085-2.854-5.729c0.001-0.003,0.016-0.035,0.017-0.039c0-0.001,0.005-0.013,0.006-0.014
					C386.905,180.311,391.719,169.704,398.878,157.214z"/>
				<path class="st33" d="M398.999,157.421c6.647,11.382,10.483,19.66,11.445,21.692c0.005,0.01,0.011,0.024,0.035,0.074
					c0.562,1.202,1.153,2.512,1.754,3.735c0.009,0.018,0.019,0.039,0.05,0.105c0.511,1.073,1.458,3.013,2.807,5.65
					c-0.002,0.004-0.018,0.04-0.021,0.046c-0.55,1.182-5.435,12.006-12.697,24.687c-6.645-11.38-10.481-19.655-11.445-21.687
					c-0.005-0.01-0.011-0.025-0.034-0.074c-0.555-1.205-1.153-2.511-1.754-3.735c-0.009-0.018-0.019-0.04-0.049-0.106
					c-0.506-1.075-1.458-3.013-2.807-5.649c0.002-0.003,0.015-0.034,0.017-0.037c0-0.001,0.005-0.013,0.005-0.013
					C387.01,180.58,391.863,169.883,398.999,157.421z"/>
				<path class="st34" d="M399.119,157.629c6.489,11.129,10.268,19.253,11.279,21.385c0.005,0.011,0.012,0.025,0.034,0.073
					c0.584,1.249,1.166,2.54,1.728,3.683c0.008,0.016,0.018,0.037,0.05,0.104c0.488,1.025,1.419,2.941,2.76,5.57
					c-0.002,0.005-0.018,0.039-0.021,0.044c-0.548,1.175-5.469,12.079-12.698,24.714c-6.488-11.128-10.267-19.249-11.279-21.38
					c-0.005-0.011-0.011-0.026-0.033-0.073c-0.577-1.252-1.167-2.539-1.728-3.682c-0.008-0.016-0.017-0.038-0.049-0.105
					c-0.482-1.028-1.419-2.941-2.76-5.569c0.002-0.003,0.014-0.032,0.016-0.036c0-0.001,0.005-0.012,0.005-0.012
					C387.114,180.849,392.006,170.062,399.119,157.629z"/>
				<path class="st35" d="M399.24,157.837c6.331,10.877,10.054,18.847,11.113,21.079c0.006,0.012,0.012,0.026,0.034,0.071
					c0.606,1.295,1.18,2.568,1.701,3.631c0.007,0.015,0.017,0.035,0.049,0.104c0.464,0.978,1.379,2.869,2.714,5.49
					c-0.002,0.005-0.017,0.037-0.02,0.043c-0.546,1.168-5.503,12.151-12.699,24.74c-6.33-10.875-10.053-18.842-11.113-21.074
					c-0.005-0.012-0.012-0.027-0.033-0.072c-0.6-1.298-1.181-2.567-1.702-3.63c-0.007-0.015-0.016-0.036-0.048-0.104
					c-0.459-0.98-1.379-2.869-2.714-5.489c0.002-0.003,0.014-0.031,0.016-0.035c0-0.001,0.004-0.011,0.005-0.012
					C387.219,181.119,392.149,170.241,399.24,157.837z"/>
				<path class="st36" d="M399.361,158.045c6.173,10.624,9.84,18.44,10.947,20.773c0.006,0.012,0.013,0.027,0.033,0.07
					c0.628,1.342,1.194,2.595,1.675,3.578c0.007,0.014,0.016,0.032,0.049,0.103c0.44,0.93,1.34,2.797,2.667,5.411
					c-0.003,0.005-0.016,0.035-0.019,0.042c-0.544,1.161-5.536,12.224-12.701,24.767c-6.172-10.622-9.839-18.436-10.947-20.768
					c-0.006-0.012-0.012-0.028-0.032-0.07c-0.622-1.345-1.194-2.595-1.676-3.578c-0.007-0.014-0.015-0.034-0.048-0.104
					c-0.435-0.933-1.34-2.796-2.667-5.41c0.002-0.004,0.013-0.029,0.015-0.033c0-0.001,0.004-0.01,0.004-0.011
					C387.324,181.388,392.292,170.42,399.361,158.045z"/>
				<path class="st37" d="M399.481,158.252c6.015,10.371,9.626,18.034,10.781,20.466c0.006,0.013,0.013,0.028,0.032,0.069
					c0.651,1.388,1.207,2.623,1.649,3.526c0.006,0.013,0.014,0.03,0.049,0.102c0.417,0.883,1.3,2.725,2.62,5.331
					c-0.003,0.006-0.016,0.034-0.019,0.04c-0.542,1.154-5.57,12.296-12.702,24.793c-6.014-10.369-9.625-18.03-10.781-20.462
					c-0.006-0.013-0.013-0.029-0.032-0.069c-0.644-1.391-1.208-2.623-1.65-3.525c-0.006-0.013-0.014-0.032-0.047-0.103
					c-0.412-0.885-1.301-2.724-2.62-5.33c0.002-0.004,0.012-0.027,0.015-0.032c0-0.001,0.004-0.01,0.004-0.01
					C387.428,181.657,392.435,170.599,399.481,158.252z"/>
				<path class="st38" d="M399.602,158.46c5.858,10.118,9.411,17.627,10.614,20.16c0.006,0.013,0.014,0.029,0.032,0.068
					c0.673,1.434,1.221,2.651,1.623,3.473c0.006,0.011,0.013,0.028,0.048,0.102c0.394,0.835,1.261,2.652,2.573,5.251
					c-0.003,0.006-0.015,0.032-0.018,0.039c-0.54,1.147-5.604,12.369-12.704,24.819c-5.857-10.117-9.41-17.624-10.614-20.156
					c-0.006-0.013-0.013-0.029-0.031-0.068c-0.667-1.437-1.222-2.651-1.624-3.473c-0.006-0.011-0.013-0.029-0.047-0.102
					c-0.389-0.837-1.261-2.652-2.573-5.25c0.002-0.004,0.012-0.026,0.014-0.031c0-0.001,0.004-0.009,0.004-0.01
					C387.533,181.926,392.578,170.778,399.602,158.46z"/>
				<path class="st39" d="M399.722,158.668c5.7,9.866,9.197,17.221,10.448,19.854c0.007,0.014,0.014,0.03,0.031,0.066
					c0.696,1.481,1.235,2.679,1.597,3.421c0.005,0.01,0.012,0.026,0.048,0.101c0.37,0.787,1.221,2.58,2.526,5.171
					c-0.003,0.006-0.014,0.03-0.018,0.038c-0.539,1.14-5.637,12.441-12.705,24.846c-5.699-9.864-9.196-17.217-10.448-19.849
					c-0.007-0.014-0.014-0.03-0.031-0.067c-0.69-1.484-1.235-2.679-1.598-3.42c-0.005-0.01-0.012-0.027-0.046-0.102
					c-0.365-0.79-1.222-2.58-2.526-5.171c0.002-0.004,0.011-0.024,0.013-0.029c0-0.001,0.003-0.008,0.004-0.009
					C387.638,182.195,392.721,170.957,399.722,158.668z"/>
				<path class="st40" d="M399.843,158.875c5.542,9.613,8.983,16.815,10.282,19.547c0.007,0.015,0.015,0.031,0.031,0.065
					c0.718,1.527,1.248,2.707,1.571,3.369c0.004,0.009,0.011,0.023,0.047,0.1c0.347,0.74,1.182,2.508,2.479,5.092
					c-0.003,0.006-0.013,0.029-0.017,0.037c-0.537,1.133-5.671,12.514-12.706,24.872c-5.541-9.611-8.982-16.811-10.282-19.543
					c-0.007-0.015-0.014-0.031-0.03-0.065c-0.712-1.53-1.249-2.707-1.572-3.368c-0.004-0.009-0.011-0.025-0.046-0.101
					c-0.342-0.742-1.182-2.508-2.48-5.091c0.002-0.004,0.01-0.023,0.013-0.028c0-0.001,0.003-0.007,0.003-0.008
					C387.743,182.465,392.864,171.136,399.843,158.875z"/>
				<path class="st41" d="M399.963,159.083c5.384,9.36,8.769,16.408,10.116,19.241c0.007,0.015,0.015,0.032,0.03,0.064
					c0.741,1.573,1.262,2.735,1.545,3.316c0.004,0.008,0.01,0.021,0.047,0.099c0.323,0.692,1.142,2.436,2.432,5.012
					c-0.003,0.007-0.013,0.027-0.017,0.035c-0.535,1.126-5.705,12.587-12.708,24.899c-5.384-9.359-8.768-16.405-10.116-19.237
					c-0.007-0.015-0.015-0.032-0.03-0.064c-0.735-1.576-1.263-2.734-1.546-3.316c-0.004-0.008-0.01-0.023-0.045-0.1
					c-0.319-0.694-1.143-2.436-2.433-5.011c0.002-0.005,0.01-0.021,0.012-0.027c0-0.001,0.003-0.007,0.003-0.007
					C387.847,182.734,393.007,171.315,399.963,159.083z"/>
				<path class="st42" d="M400.084,159.291c5.226,9.107,8.554,16.002,9.95,18.934c0.008,0.016,0.016,0.033,0.03,0.063
					c0.764,1.62,1.276,2.763,1.519,3.264c0.003,0.006,0.009,0.019,0.046,0.099c0.3,0.645,1.103,2.364,2.386,4.932
					c-0.003,0.007-0.012,0.025-0.016,0.034c-0.533,1.119-5.738,12.659-12.709,24.925c-5.226-9.106-8.554-15.998-9.95-18.931
					c-0.008-0.016-0.015-0.033-0.029-0.063c-0.759-1.622-1.276-2.762-1.52-3.263c-0.003-0.006-0.009-0.02-0.045-0.1
					c-0.296-0.646-1.103-2.364-2.386-4.931c0.002-0.005,0.009-0.02,0.012-0.025c0-0.001,0.002-0.006,0.003-0.007
					C387.952,183.003,393.15,171.494,400.084,159.291z"/>
				<path class="st43" d="M400.205,159.499c5.069,8.855,8.34,15.595,9.783,18.628c0.008,0.016,0.016,0.034,0.029,0.061
					c0.786,1.666,1.289,2.791,1.493,3.211c0.002,0.005,0.008,0.016,0.046,0.098c0.278,0.597,1.063,2.292,2.339,4.852
					c-0.004,0.007-0.011,0.024-0.016,0.033c-0.531,1.112-5.772,12.732-12.711,24.952c-5.068-8.853-8.34-15.592-9.784-18.624
					c-0.008-0.016-0.016-0.034-0.029-0.061c-0.782-1.668-1.29-2.79-1.493-3.211c-0.002-0.005-0.007-0.018-0.044-0.099
					c-0.273-0.599-1.064-2.291-2.339-4.852c0.002-0.005,0.008-0.018,0.011-0.024c0-0.001,0.002-0.005,0.003-0.006
					C388.057,183.272,393.293,171.673,400.205,159.499z"/>
				<path class="st44" d="M400.325,159.706c4.911,8.602,8.126,15.189,9.617,18.322c0.008,0.017,0.017,0.035,0.028,0.06
					c0.813,1.71,1.303,2.818,1.466,3.159c0.002,0.004,0.007,0.014,0.045,0.097c0.254,0.549,1.024,2.219,2.292,4.773
					c-0.004,0.007-0.011,0.022-0.015,0.031c-0.529,1.105-5.806,12.804-12.712,24.978c-4.91-8.6-8.126-15.186-9.618-18.318
					c-0.008-0.017-0.016-0.035-0.028-0.06c-0.806-1.713-1.304-2.818-1.467-3.158c-0.002-0.004-0.006-0.016-0.044-0.098
					c-0.25-0.551-1.024-2.219-2.293-4.772c0.003-0.005,0.008-0.017,0.011-0.022c0-0.001,0.002-0.004,0.002-0.005
					C388.161,183.542,393.436,171.852,400.325,159.706z"/>
				<path class="st45" d="M400.446,159.914c4.753,8.349,7.912,14.782,9.451,18.015c0.008,0.018,0.017,0.036,0.028,0.059
					c0.835,1.757,1.317,2.846,1.44,3.107c0.001,0.003,0.006,0.012,0.045,0.097c0.23,0.502,0.984,2.147,2.245,4.693
					c-0.004,0.008-0.01,0.021-0.014,0.03c-0.528,1.098-5.839,12.877-12.713,25.005c-4.753-8.348-7.912-14.78-9.452-18.012
					c-0.008-0.018-0.017-0.036-0.028-0.059c-0.83-1.759-1.317-2.846-1.441-3.106c-0.001-0.003-0.005-0.014-0.043-0.098
					c-0.227-0.503-0.985-2.147-2.246-4.692c0.003-0.005,0.007-0.015,0.01-0.021c0-0.001,0.002-0.004,0.002-0.005
					C388.266,183.811,393.579,172.031,400.446,159.914z"/>
				<path class="st46" d="M400.566,160.122c4.595,8.096,7.697,14.376,9.285,17.709c0.009,0.018,0.017,0.037,0.027,0.058
					c0.858,1.803,1.33,2.874,1.414,3.054c0.001,0.001,0.005,0.009,0.045,0.096c0.207,0.454,0.945,2.075,2.198,4.613
					c-0.004,0.008-0.009,0.019-0.014,0.029c-0.526,1.091-5.873,12.949-12.715,25.031c-4.595-8.095-7.698-14.373-9.285-17.706
					c-0.009-0.018-0.017-0.037-0.027-0.058c-0.858-1.803-1.331-2.874-1.415-3.054c-0.001-0.001-0.004-0.011-0.043-0.097
					c-0.204-0.455-0.946-2.075-2.199-4.612c0.003-0.006,0.006-0.013,0.01-0.02c0-0.001,0.001-0.003,0.002-0.004
					C388.371,184.08,393.722,172.21,400.566,160.122z"/>
				<path class="st47" d="M400.686,210.504c-6.873-12.147-10.408-20.173-10.535-20.457c0,0-0.004-0.009-0.042-0.096
					c-0.182-0.407-0.906-2.003-2.152-4.533c0.439-0.891,5.858-12.94,12.73-25.089c6.873,12.149,10.407,20.177,10.533,20.461
					c0,0,0.004,0.007,0.044,0.095c0.182,0.407,0.905,2.003,2.151,4.534C412.978,186.309,407.559,198.357,400.686,210.504z"/>
			</g>
		</g>
	</mask>
	<path id="Shadow_1_" class="st48" d="M411.264,180.885c0.317,0.714,2.294,5.063,5.859,11.749l-0.031,0.068
		c-0.581,1.302-4.863,10.772-12.673,24.237c-9.327-15.676-14.121-26.562-14.269-26.893c0,0-0.004-0.009-0.042-0.096
		c-0.318-0.714-2.295-5.062-5.859-11.747l0.026-0.06l0.01-0.025c0.944-2.115,5.145-11.278,12.663-24.228
		c9.329,15.679,14.125,26.569,14.271,26.9C411.22,180.79,411.224,180.797,411.264,180.885z"/>
	<path class="st49" d="M485.847,70.536c-3.728-0.357-13.858-1.342-15.938-1.608l-3.413-0.436l-2.663,2.177
		c-22.08,18.042-42.395,41.443-60.383,69.561c-12.534,19.63-19.346,34.48-20.592,37.274l-0.248-1.054l-0.008,1.624
		c-0.167,0.366-0.419,0.904-0.742,1.585c-1.004,2.106-2.124,4.347-3.327,6.664c-2.743,5.284-7.31,13.612-13.492,23.286
		c-10.795,16.924-28.609,41.129-52.176,60.34c-8.33,6.803-9.575,19.115-2.773,27.448c3.852,4.716,9.467,7.161,15.129,7.16
		c4.338,0,8.704-1.437,12.32-4.387c22.086-18.047,42.4-41.449,60.383-69.563c12.659-19.822,19.6-35.05,20.558-37.196
		c0.024-0.055,0.056-0.124,0.093-0.21l0.163-0.357c0.167-0.365,0.426-0.926,0.779-1.668c0.664-1.395,1.78-3.683,3.325-6.658
		c2.748-5.294,7.319-13.632,13.489-23.287c10.799-16.925,28.617-41.132,52.173-60.336l2.645-2.156l0.274-3.401
		c0.391-4.835,1.602-15.849,1.614-15.959l0.888-8.066L485.847,70.536z"/>
	<path class="st12" d="M334.995,269.83c-1.343-0.148-13.219-1.458-16.564-1.669l-3.128-0.198l-2.43,1.98
		c-26.225,21.366-53.979,32.203-82.485,32.209c-23.135-0.006-45.496-6.762-64.665-19.539c-8.948-5.965-21.084-3.539-27.051,5.409
		c-2.892,4.335-3.921,9.537-2.9,14.647c1.022,5.11,3.973,9.517,8.307,12.404c25.588,17.071,55.424,26.093,86.285,26.093
		c0.016-0.001,0.033,0,0.052,0c37.811,0,73.855-13.795,107.127-40.999l2.493-2.038l0.386-3.196
		c0.688-5.696,1.622-15.993,1.662-16.429l0.708-7.811L334.995,269.83z"/>
	<path class="st14" d="M169.135,287.732l-0.641-3.266l-2.768-1.848c-32.608-21.766-52.076-58.103-52.074-97.201
		c-0.001-39.099,19.465-75.435,52.074-97.198l15.924-9.186l-18.472-5.241c-2.748-0.669-5.528-1.36-7.936-1.963
		c0.393-2.571,0.828-5.527,1.204-8.353l3.228-17.15L144.08,55.76c-43.482,28.973-69.442,77.442-69.442,129.657
		c0,52.215,25.96,100.686,69.442,129.658l2.699,1.798l3.189-0.589c7.248-1.338,15.807-3.153,16.167-3.23l7.745-1.645l-1.564-7.762
		C172.316,303.645,170.08,292.55,169.135,287.732z"/>
	<path class="st50" d="M571.035,361.78c-42.545,0-82.846-15.314-119.783-45.518l-8.425-6.888l-0.056-0.376
		c-14.913-13.302-28.972-28.873-42.004-46.509c-12.952,17.529-26.913,33.012-41.719,46.256l-0.041,0.338l-6.231,5.143l-2.492,2.038
		c-36.784,30.074-76.9,45.387-119.248,45.515l-0.711,0.001c-30.719-0.021-60.69-8.031-87.188-23.241l-0.504,0.095l-6.864-4.503
		l-2.699-1.799c-49.06-32.688-78.351-87.38-78.351-146.3c0-58.919,29.291-113.611,78.353-146.301l0.448-0.299l15.469-9.144
		l0.479-0.249c24.829-12.923,52.828-19.753,80.972-19.753c38.883-0.001,75.902,12.782,110.181,38.016l0.385-0.045l6.613,5.366
		l2.66,2.173c18.081,14.776,35,32.804,50.491,53.774c15.329-20.752,32.045-38.609,49.898-53.289l0.346-0.327l0.607-0.454
		l8.938-7.305l0.427,0.054c34.254-25.198,71.242-37.966,110.059-37.966c34.711,0,68.256,10.098,97.057,29.207
		c0.14,0.089,3.131,2.085,3.131,2.085l6.844,4.565l0.117,0.576c43.116,33.168,68.624,84.65,68.625,139.315
		c-0.001,58.821-29.2,113.436-78.121,146.145l-9.771,6.512l-0.59-0.112c-26.516,15.203-56.507,23.202-87.244,23.203H571.035z"/>
	<text transform="matrix(1 0 0 1 205.8512 56.0499)" class="st6 st7 st51 st52">code</text>
	<text transform="matrix(1 0 0 1 205.2341 324.4695)" class="st6 st7 st51 st52">test</text>
	<path id="SVGID_x5F_3_x5F_" class="st13" d="M702.141,179.792c-0.001,52.214-25.962,100.684-69.445,129.658l-2.739,1.825
		l-3.231-0.631c-7.217-1.412-16.018-3.204-16.018-3.204l-7.831-1.595l1.587-7.833c0.022-0.111,2.274-11.226,3.176-15.887l0.635-3.28
		l2.778-1.854c32.608-21.764,52.075-58.1,52.074-97.199c0.001-39.1-19.466-75.436-52.074-97.199
		c-8.945-5.967-11.371-18.102-5.404-27.051c3.626-5.438,9.696-8.685,16.239-8.687c3.855,0,7.593,1.132,10.811,3.275
		C676.18,79.107,702.14,127.579,702.141,179.792z"/>
	<text class="st2">	<textPath  xlink:href="#SVGID_x5F_3_x5F_" startOffset="73.0166%">
<tspan  class="st5 st7 st51" style="letter-spacing:62;">OPERATE</tspan>	</textPath>
</text>
	<path id="SVGID_x5F_4_x5F_" class="st13" d="M197.659,338.275l1.564,7.762l-7.745,1.645c-0.361,0.077-8.919,1.892-16.167,3.23
		l-3.189,0.589l-2.699-1.798c-43.482-28.972-69.442-77.442-69.442-129.658c0-52.215,25.96-100.685,69.442-129.657l14.7-9.794
		l-2.334,17.509c-0.376,2.826-0.811,5.782-1.204,8.353c2.408,0.604,5.188,1.294,7.936,1.963l17.704,4.312l-15.156,10.115
		c-32.608,21.764-52.075,58.1-52.074,97.198c-0.001,39.099,19.466,75.436,52.074,97.201l2.768,1.848l0.641,3.266
		C195.422,327.178,197.658,338.272,197.659,338.275z"/>
	<text class="st2">	<textPath  xlink:href="#SVGID_x5F_4_x5F_" startOffset="-2352.9009%">
<tspan  class="st5 st7 st51" style="letter-spacing:62;">BUILD</tspan>	</textPath>
</text>
	<path id="SVGID_x5F_5_x5F_" class="st13" d="M515.77,82.79l-0.888,8.066c-0.013,0.11-1.224,11.124-1.614,15.959l-0.274,3.401
		l-2.645,2.156c-23.556,19.205-41.374,43.411-52.173,60.336c-6.17,9.655-10.741,17.992-13.489,23.287
		c-1.545,2.976-2.661,5.263-3.325,6.658c-0.354,0.742-0.612,1.304-0.779,1.668l-0.163,0.357c-0.037,0.086-0.068,0.156-0.093,0.21
		c-0.958,2.146-7.899,17.374-20.558,37.196c-17.982,28.114-38.297,51.516-60.383,69.563c-3.616,2.951-7.981,4.387-12.32,4.387
		c-5.662,0-11.277-2.444-15.129-7.16c-6.801-8.333-5.557-20.645,2.773-27.448c23.566-19.211,41.38-43.417,52.176-60.34
		c6.182-9.674,10.749-18.002,13.492-23.286c1.204-2.316,2.323-4.557,3.327-6.664c0.323-0.681,0.574-1.219,0.742-1.585l0.008-1.624
		l0.248,1.054c1.246-2.794,8.058-17.644,20.592-37.274c17.989-28.118,38.303-51.519,60.383-69.561l2.663-2.177l3.413,0.436
		c2.08,0.266,12.211,1.251,15.938,1.608L515.77,82.79z"/>
	<text class="st2">	<textPath  xlink:href="#SVGID_x5F_5_x5F_" startOffset="39.6222%">
<tspan  class="st5 st7 st51" style="letter-spacing:62;">RELEASE</tspan>	</textPath>
</text>
	<path id="SVGID_x5F_6_x5F_" class="st13" d="M462.01,300.875c-3.296,4.037-7.966,6.548-13.149,7.072
		c-0.668,0.067-1.335,0.101-1.998,0.101c-4.479,0-8.785-1.528-12.301-4.4c-22.088-18.049-42.402-41.451-60.381-69.556
		c-12.866-20.146-19.845-35.589-20.599-37.284l-0.065-0.147c-0.256-0.573-6.71-14.942-18.882-33.716
		c-10.617-16.393-28.087-39.859-51.038-58.574l-2.5-2.039l-0.386-3.203c-0.715-5.927-1.625-16.002-1.664-16.428l-0.715-7.935
		l7.932-0.749c0.126-0.012,12.661-1.196,15.937-1.611l3.408-0.432l2.66,2.173c22.085,18.048,42.4,41.451,60.379,69.558
		c12.854,20.124,19.684,35.225,20.582,37.252c0.016,0.034,0.032,0.069,0.049,0.106c0.288,0.647,6.712,14.971,18.914,33.784
		c10.611,16.391,28.077,39.854,51.038,58.576C467.565,280.232,468.811,292.544,462.01,300.875z"/>
	<text class="st2">	<textPath  xlink:href="#SVGID_x5F_6_x5F_" startOffset="18.2559%">
<tspan  class="st5 st7 st51" style="letter-spacing:62;">PLAN</tspan>	</textPath>
</text>
	<text transform="matrix(1 0 0 1 673.4163 377.0065)" class="st53 st54 st55">draft</text>
</g>
<g id="out">
	<rect x="164.07" y="161.982" class="st56" width="136.674" height="46.888"/>
	<rect x="495.281" y="161.982" class="st56" width="136.674" height="46.888"/>
	<g>
		<path class="st5" d="M525.698,184.675v-0.076c0-7.485,5.775-13.754,13.944-13.754s13.868,6.193,13.868,13.678v0.076
			c0,7.485-5.775,13.754-13.944,13.754S525.698,192.16,525.698,184.675z M548.609,184.675v-0.076c0-5.167-3.762-9.461-9.043-9.461
			s-8.967,4.217-8.967,9.385v0.076c0,5.167,3.762,9.422,9.043,9.422S548.609,189.842,548.609,184.675z"/>
		<path class="st5" d="M561.532,171.301h10.486c6.23,0,10.106,3.534,10.106,8.891v0.076c0,5.965-4.787,9.081-10.639,9.081h-5.281
			v8.549h-4.673V171.301z M571.639,185.131c3.533,0,5.736-1.976,5.736-4.75v-0.076c0-3.116-2.241-4.75-5.736-4.75h-5.434v9.575
			H571.639z"/>
		<path class="st5" d="M587.486,194.021l2.812-3.343c2.546,2.204,5.129,3.458,8.396,3.458c2.888,0,4.712-1.368,4.712-3.344v-0.076
			c0-1.899-1.064-2.925-6.003-4.065c-5.662-1.368-8.854-3.039-8.854-7.94v-0.076c0-4.559,3.8-7.713,9.081-7.713
			c3.875,0,6.953,1.178,9.65,3.344l-2.508,3.533c-2.394-1.786-4.787-2.735-7.219-2.735c-2.735,0-4.331,1.406-4.331,3.153v0.076
			c0,2.052,1.216,2.963,6.345,4.179c5.623,1.368,8.511,3.381,8.511,7.789v0.076c0,4.978-3.913,7.941-9.498,7.941
			C594.516,198.277,590.678,196.871,587.486,194.021z"/>
	</g>
	<g>
		<path class="st5" d="M191.196,171.301h9.917c8.359,0,14.134,5.737,14.134,13.222v0.076c0,7.485-5.775,13.298-14.134,13.298h-9.917
			V171.301z M195.869,175.556v18.085h5.243c5.585,0,9.233-3.761,9.233-8.967v-0.076c0-5.206-3.647-9.043-9.233-9.043H195.869z"/>
		<path class="st5" d="M223.268,171.301h19.719v4.18h-15.046v6.915h13.336v4.179h-13.336v7.143h15.236v4.179h-19.909V171.301z"/>
		<path class="st5" d="M248.804,171.301h5.167l8.017,20.441l7.979-20.441h5.053l-11.019,26.786h-4.141L248.804,171.301z"/>
	</g>
	<path class="st57" d="M337.542,70.669c-33.274-27.205-69.328-40.999-107.156-40.998c-0.009,0-0.019,0-0.028,0
		c-30.86,0-60.695,9.022-86.278,26.09c-4.335,2.89-7.286,7.295-8.307,12.406c-1.021,5.109,0.008,10.311,2.898,14.646
		c2.891,4.334,7.296,7.285,12.405,8.306c5.111,1.023,10.313-0.008,14.644-2.898c19.175-12.777,41.536-19.533,64.663-19.538
		c28.511,0.007,56.265,10.843,82.483,32.203c3.516,2.87,7.821,4.398,12.299,4.398c0.664,0,1.331-0.034,2-0.102
		c5.185-0.524,9.854-3.037,13.146-7.072C347.112,89.782,345.868,77.47,337.542,70.669z"/>
	<path class="st58" d="M488.503,269.945c-22.961-18.723-40.427-42.185-51.038-58.576c-12.202-18.813-18.626-33.137-18.914-33.784
		c-0.017-0.037-0.033-0.073-0.049-0.106c-0.898-2.028-7.729-17.128-20.582-37.252c-17.979-28.107-38.294-51.509-60.379-69.558
		l-2.66-2.173l-3.408,0.432c-3.276,0.415-15.811,1.599-15.937,1.611l-7.932,0.749l0.715,7.935
		c0.039,0.426,0.949,10.501,1.664,16.428l0.386,3.203l2.5,2.039c22.951,18.715,40.421,42.181,51.038,58.574
		c12.172,18.774,18.626,33.143,18.882,33.716l0.065,0.147c0.753,1.695,7.732,17.138,20.599,37.284
		c17.979,28.105,38.293,51.507,60.381,69.556c3.516,2.872,7.822,4.4,12.301,4.4c0.663,0,1.33-0.034,1.998-0.101
		c5.184-0.524,9.854-3.035,13.149-7.072C498.083,289.064,496.838,276.752,488.503,269.945z"/>
	<path class="st59" d="M662.701,288.023c-2.891-4.336-7.297-7.287-12.407-8.308s-10.31,0.008-14.644,2.898
		c-19.174,12.779-41.535,19.535-64.662,19.538c-28.512-0.006-56.266-10.843-82.488-32.21l-2.772-2.258l-3.531,0.559
		c-2.361,0.374-10.636,1.144-15.622,1.57l-7.937,0.678l0.645,7.94c0.035,0.437,0.877,10.755,1.688,16.635l0.429,3.112l2.432,1.989
		c33.273,27.207,69.312,41,107.123,41c0.018,0,0.035,0,0.055,0c30.861-0.001,60.703-9.024,86.289-26.093
		c4.334-2.891,7.283-7.297,8.304-12.407C666.621,297.555,665.591,292.354,662.701,288.023z"/>
	<g>
		<path class="st5" d="M513.062,299.985l2.011,0.958l0.851,6.638l5.688-3.524l2.011,0.957l-5.116,10.746l-1.888-0.899l3.669-7.706
			l-5.805,3.45l-0.062-0.029l-0.964-6.635l-3.654,7.675l-1.857-0.884L513.062,299.985z"/>
		<path class="st5" d="M524.507,311.848l0.011-0.032c1.037-3.183,4.362-5.049,7.836-3.917c3.475,1.132,5.04,4.556,4.003,7.739
			l-0.011,0.032c-1.037,3.184-4.361,5.049-7.836,3.917C525.036,318.455,523.47,315.032,524.507,311.848z M534.251,315.023
			l0.011-0.033c0.716-2.197-0.289-4.544-2.535-5.276c-2.246-0.731-4.398,0.551-5.114,2.749l-0.01,0.032
			c-0.717,2.198,0.294,4.529,2.54,5.26C531.389,318.487,533.535,317.22,534.251,315.023z"/>
		<path class="st5" d="M541.068,310.682l1.906,0.344l4.81,9.227l1.462-8.094l2.023,0.365l-2.115,11.707l-1.722-0.312l-4.951-9.495
			l-1.505,8.329l-2.023-0.366L541.068,310.682z"/>
		<path class="st5" d="M555.026,312.798l2.085,0.167l-0.95,11.867l-2.085-0.167L555.026,312.798z"/>
		<path class="st5" d="M563.856,315.147l-3.773,0.031l-0.016-1.938l9.655-0.078l0.016,1.938l-3.774,0.03l0.081,9.961l-2.108,0.017
			L563.856,315.147z"/>
		<path class="st5" d="M571.997,319.075l-0.004-0.034c-0.424-3.322,1.783-6.431,5.409-6.893c3.625-0.463,6.505,1.963,6.929,5.285
			l0.004,0.034c0.424,3.322-1.784,6.43-5.409,6.893S572.421,322.396,571.997,319.075z M582.164,317.777l-0.004-0.034
			c-0.293-2.293-2.205-3.985-4.549-3.686c-2.344,0.299-3.74,2.379-3.448,4.672l0.005,0.034c0.292,2.293,2.203,3.969,4.546,3.669
			C581.058,322.134,582.457,320.07,582.164,317.777z"/>
		<path class="st5" d="M586.489,310.887l5.128-1.357c1.446-0.382,2.693-0.255,3.624,0.272c0.773,0.464,1.345,1.227,1.609,2.229
			l0.009,0.033c0.5,1.89-0.334,3.324-1.806,4.206l4.258,3.533l-2.399,0.635l-3.888-3.262l-2.53,0.67l1.061,4.009l-2.021,0.535
			L586.489,310.887z M592.979,315.272c1.445-0.383,2.166-1.382,1.857-2.549l-0.009-0.033c-0.326-1.233-1.392-1.672-2.888-1.276
			l-2.941,0.778l1.021,3.862L592.979,315.272z"/>
	</g>
	<path class="st60" d="M657.292,55.757c-3.218-2.143-6.955-3.275-10.811-3.275c-6.543,0.002-12.613,3.25-16.239,8.687
		c-5.967,8.949-3.541,21.084,5.404,27.051c32.608,21.763,52.075,58.099,52.074,97.199c0.001,39.099-19.466,75.435-52.074,97.199
		l-2.778,1.854l-0.635,3.28c-0.901,4.661-3.153,15.775-3.176,15.887l-1.587,7.833l7.831,1.595c0,0,8.801,1.792,16.018,3.204
		l3.231,0.631l2.739-1.825c43.483-28.974,69.444-77.443,69.445-129.658C726.735,133.204,700.775,84.733,657.292,55.757z"/>
	<path class="st57" d="M660.05,57.599l-2.755-1.838c-25.587-17.069-55.432-26.092-86.306-26.092c-0.011,0-0.016,0-0.027,0
		c-37.811,0-73.858,13.795-107.125,40.994c-8.333,6.801-9.58,19.114-2.779,27.446c3.294,4.038,7.964,6.551,13.147,7.076
		c0.67,0.068,1.338,0.102,2.003,0.102c4.477,0,8.781-1.527,12.291-4.393c26.227-21.366,53.98-32.204,82.488-32.21
		c23.13,0.004,45.49,6.76,64.664,19.539l2.737,1.825l3.229-0.63c11.724-2.285,15.931-3.184,16.104-3.221l7.715-1.653L660.05,57.599z
		"/>
	<g id="Shape_x5F_Part_2_">
		<g>
			<path class="st5" d="M540.894,45.641l4.377-0.721c3.688-0.607,6.655,1.505,7.199,4.809l0.005,0.033
				c0.545,3.304-1.582,6.289-5.271,6.897l-4.377,0.721L540.894,45.641z M543.266,47.179l1.314,7.982l2.314-0.381
				c2.465-0.406,3.801-2.331,3.423-4.628l-0.006-0.034c-0.378-2.297-2.267-3.726-4.732-3.32L543.266,47.179z"/>
			<path class="st5" d="M555.904,43.437l8.799-0.634l0.134,1.865l-6.713,0.483l0.223,3.085l5.95-0.428l0.134,1.865l-5.95,0.428
				l0.229,3.187l6.798-0.489l0.135,1.865l-8.884,0.64L555.904,43.437z"/>
			<path class="st5" d="M569.08,42.694l4.691,0.055c2.788,0.033,4.503,1.634,4.475,4.03v0.034c-0.031,2.668-2.189,4.038-4.807,4.007
				l-2.363-0.027l-0.044,3.825l-2.091-0.024L569.08,42.694z M573.529,48.934c1.581,0.018,2.577-0.854,2.592-2.095v-0.034
				c0.017-1.394-0.979-2.137-2.542-2.155l-2.431-0.028l-0.05,4.284L573.529,48.934z"/>
			<path class="st5" d="M582.205,43.05l2.083,0.189l-0.906,9.959l6.232,0.567l-0.172,1.897l-8.316-0.757L582.205,43.05z"/>
			<path class="st5" d="M592.265,50.007l0.006-0.034c0.586-3.297,3.621-5.607,7.22-4.967c3.6,0.64,5.625,3.814,5.039,7.112
				l-0.006,0.034c-0.587,3.297-3.622,5.607-7.221,4.967S591.678,53.304,592.265,50.007z M602.357,51.801l0.007-0.033
				c0.404-2.277-0.917-4.463-3.243-4.876c-2.327-0.414-4.281,1.156-4.686,3.433l-0.006,0.033c-0.405,2.276,0.919,4.446,3.246,4.859
				C600.002,55.63,601.953,54.077,602.357,51.801z"/>
			<path class="st5" d="M610.32,54.981l-2.671-8.193l2.395,0.65l1.822,5.938l4.625-4.187l2.312,0.628l-6.436,5.667l-1.243,4.577
				l-2.034-0.553L610.32,54.981z"/>
		</g>
	</g>
	<defs>
		<filter id="Adobe_OpacityMaskFilter_1_" filterUnits="userSpaceOnUse" x="384.25" y="153.89" width="32.874" height="63.049">
			<feColorMatrix  type="matrix" values="1 0 0 0 0  0 1 0 0 0  0 0 1 0 0  0 0 0 1 0"/>
		</filter>
	</defs>
	<mask maskUnits="userSpaceOnUse" x="384.25" y="153.89" width="32.874" height="63.049" id="Shadow_4_">
		<g class="st61">
			<g>
				<path d="M411.264,180.885c0.317,0.714,2.294,5.063,5.859,11.749l-0.031,0.068c-0.581,1.302-4.863,10.772-12.673,24.237
					c-9.327-15.676-14.121-26.562-14.269-26.893c0,0-0.004-0.009-0.042-0.096c-0.318-0.714-2.295-5.062-5.859-11.747l0.026-0.06
					l0.01-0.025c0.944-2.115,5.145-11.278,12.663-24.228c9.329,15.679,14.125,26.569,14.271,26.9
					C411.22,180.79,411.224,180.797,411.264,180.885z"/>
				<path class="st17" d="M397.07,154.098c9.172,15.426,13.91,26.163,14.105,26.594c0,0.001,0.004,0.008,0.044,0.094
					c0.208,0.458,0.934,2.066,2.171,4.574c0.019,0.038,0.037,0.075,0.057,0.116c0.902,1.827,2.09,4.168,3.557,6.926
					c0,0-0.03,0.067-0.03,0.067c-0.579,1.295-4.897,10.845-12.674,24.264c-9.169-15.424-13.907-26.156-14.103-26.587
					c0-0.001-0.004-0.01-0.042-0.095c-0.205-0.459-0.935-2.065-2.172-4.573c-0.019-0.038-0.037-0.076-0.057-0.116
					c-0.902-1.826-2.089-4.167-3.556-6.925c0,0,0.025-0.059,0.025-0.059c0,0,0.01-0.024,0.01-0.025
					C385.335,176.272,389.574,167.019,397.07,154.098z"/>
				<path class="st18" d="M397.19,154.306c9.014,15.173,13.696,25.756,13.939,26.287c0.001,0.001,0.005,0.009,0.043,0.093
					c0.23,0.504,0.948,2.094,2.145,4.521c0.018,0.036,0.036,0.073,0.057,0.116c0.878,1.779,2.05,4.096,3.51,6.846
					c0,0.001-0.029,0.065-0.029,0.066c-0.577,1.288-4.931,10.917-12.676,24.29c-9.011-15.171-13.693-25.749-13.937-26.28
					c-0.001-0.001-0.004-0.011-0.041-0.094c-0.227-0.506-0.948-2.093-2.146-4.521c-0.018-0.036-0.036-0.073-0.057-0.116
					c-0.874-1.781-2.05-4.095-3.509-6.845c0,0,0.025-0.057,0.025-0.057c0,0,0.009-0.024,0.009-0.024
					C385.439,176.542,389.717,167.198,397.19,154.306z"/>
				<path class="st19" d="M397.311,154.513c8.856,14.921,13.482,25.35,13.773,25.981c0.001,0.002,0.005,0.01,0.042,0.092
					c0.252,0.551,0.961,2.121,2.119,4.469c0.017,0.035,0.035,0.071,0.056,0.115c0.85,1.734,2.011,4.023,3.463,6.766
					c0,0.001-0.028,0.063-0.029,0.064c-0.575,1.281-4.964,10.99-12.677,24.317c-8.854-14.918-13.479-25.343-13.771-25.974
					c-0.001-0.002-0.005-0.012-0.041-0.092c-0.249-0.553-0.962-2.121-2.12-4.468c-0.017-0.035-0.035-0.071-0.056-0.115
					c-0.848-1.735-2.01-4.023-3.462-6.765c0-0.001,0.024-0.056,0.024-0.056c0,0,0.009-0.023,0.009-0.023
					C385.544,176.811,389.86,167.377,397.311,154.513z"/>
				<path class="st20" d="M397.431,154.721c8.698,14.668,13.268,24.943,13.606,25.674c0.001,0.002,0.005,0.011,0.042,0.09
					c0.273,0.598,0.975,2.149,2.093,4.417c0.017,0.034,0.034,0.069,0.056,0.114c0.825,1.687,1.971,3.951,3.417,6.687
					c-0.001,0.001-0.028,0.062-0.028,0.063c-0.573,1.274-4.998,11.063-12.678,24.343c-8.696-14.665-13.265-24.937-13.605-25.668
					c-0.001-0.002-0.005-0.013-0.04-0.091c-0.27-0.599-0.976-2.149-2.094-4.416c-0.017-0.034-0.034-0.069-0.056-0.114
					c-0.822-1.688-1.971-3.951-3.416-6.686c0-0.001,0.023-0.054,0.024-0.055c0,0,0.009-0.022,0.009-0.022
					C385.649,177.08,390.003,167.556,397.431,154.721z"/>
				<path class="st21" d="M397.552,154.929c8.54,14.415,13.053,24.537,13.44,25.368c0.001,0.003,0.006,0.012,0.041,0.089
					c0.296,0.644,0.989,2.177,2.067,4.364c0.016,0.033,0.033,0.066,0.056,0.113c0.8,1.64,1.932,3.879,3.37,6.607
					c-0.001,0.001-0.027,0.06-0.028,0.062c-0.572,1.267-5.032,11.135-12.68,24.37c-8.538-14.413-13.05-24.53-13.439-25.362
					c-0.001-0.003-0.005-0.014-0.04-0.09c-0.292-0.646-0.989-2.177-2.068-4.363c-0.016-0.033-0.033-0.067-0.055-0.114
					c-0.797-1.642-1.931-3.879-3.369-6.606c0-0.001,0.023-0.052,0.023-0.053c0,0,0.008-0.021,0.008-0.022
					C385.753,177.349,390.146,167.735,397.552,154.929z"/>
				<path class="st22" d="M397.673,155.136c8.383,14.162,12.839,24.13,13.274,25.062c0.002,0.004,0.006,0.013,0.041,0.088
					c0.318,0.69,1.002,2.205,2.041,4.312c0.015,0.031,0.031,0.064,0.055,0.113c0.776,1.593,1.892,3.807,3.323,6.527
					c-0.001,0.002-0.026,0.058-0.027,0.06c-0.57,1.26-5.065,11.208-12.681,24.396c-8.38-14.16-12.836-24.124-13.273-25.055
					c-0.002-0.004-0.006-0.015-0.039-0.088c-0.314-0.693-1.003-2.205-2.041-4.311c-0.015-0.031-0.031-0.065-0.055-0.113
					c-0.772-1.595-1.892-3.806-3.322-6.526c0.001-0.001,0.022-0.051,0.023-0.052c0,0,0.008-0.021,0.008-0.021
					C385.858,177.618,390.289,167.914,397.673,155.136z"/>
				<path class="st23" d="M397.793,155.344c8.225,13.91,12.625,23.724,13.108,24.755c0.002,0.004,0.007,0.014,0.04,0.086
					c0.341,0.737,1.016,2.233,2.015,4.259c0.015,0.03,0.03,0.062,0.055,0.112c0.751,1.546,1.853,3.735,3.276,6.447
					c-0.001,0.002-0.026,0.057-0.027,0.059c-0.568,1.252-5.099,11.28-12.683,24.422c-8.223-13.907-12.622-23.718-13.106-24.749
					c-0.002-0.004-0.006-0.016-0.039-0.087c-0.336-0.739-1.017-2.233-2.015-4.259c-0.015-0.03-0.03-0.062-0.054-0.112
					c-0.747-1.548-1.853-3.734-3.275-6.446c0.001-0.001,0.021-0.049,0.022-0.051c0,0,0.008-0.02,0.008-0.02
					C385.963,177.888,390.432,168.093,397.793,155.344z"/>
				<path class="st24" d="M397.914,155.552c8.067,13.657,12.411,23.318,12.941,24.449c0.002,0.005,0.007,0.015,0.04,0.085
					c0.363,0.783,1.03,2.261,1.989,4.207c0.014,0.029,0.029,0.06,0.054,0.111c0.727,1.499,1.813,3.663,3.229,6.368
					c-0.001,0.002-0.025,0.055-0.026,0.058c-0.566,1.245-5.133,11.353-12.684,24.449c-8.065-13.655-12.408-23.312-12.94-24.443
					c-0.002-0.005-0.007-0.017-0.038-0.086c-0.357-0.786-1.03-2.261-1.989-4.206c-0.014-0.029-0.029-0.06-0.054-0.112
					c-0.722-1.501-1.813-3.662-3.228-6.367c0.001-0.001,0.021-0.048,0.022-0.049c0,0,0.008-0.019,0.008-0.02
					C386.068,178.157,390.575,168.272,397.914,155.552z"/>
				<path class="st25" d="M398.034,155.76c7.909,13.404,12.196,22.911,12.775,24.143c0.003,0.005,0.008,0.016,0.039,0.084
					c0.386,0.83,1.043,2.289,1.963,4.155c0.014,0.028,0.028,0.057,0.054,0.111c0.703,1.452,1.774,3.59,3.182,6.288
					c-0.001,0.002-0.024,0.053-0.026,0.056c-0.564,1.238-5.166,11.425-12.685,24.475c-7.907-13.402-12.194-22.905-12.774-24.137
					c-0.003-0.005-0.007-0.018-0.038-0.085c-0.379-0.833-1.044-2.288-1.963-4.154c-0.014-0.028-0.028-0.058-0.053-0.111
					c-0.698-1.454-1.774-3.59-3.182-6.287c0.001-0.002,0.02-0.046,0.021-0.048c0,0,0.007-0.018,0.007-0.019
					C386.172,178.426,390.718,168.451,398.034,155.76z"/>
				<path class="st26" d="M398.155,155.967c7.751,13.151,11.982,22.505,12.609,23.836c0.003,0.006,0.008,0.017,0.039,0.083
					c0.408,0.876,1.057,2.317,1.936,4.102c0.013,0.026,0.027,0.055,0.053,0.11c0.678,1.405,1.734,3.518,3.135,6.208
					c-0.001,0.003-0.023,0.052-0.025,0.055c-0.562,1.231-5.2,11.498-12.687,24.502c-7.75-13.149-11.98-22.499-12.608-23.83
					c-0.003-0.006-0.008-0.018-0.037-0.083c-0.401-0.879-1.058-2.316-1.937-4.101c-0.013-0.026-0.027-0.056-0.053-0.11
					c-0.673-1.407-1.734-3.518-3.135-6.207c0.001-0.002,0.02-0.045,0.021-0.047c0,0,0.007-0.018,0.007-0.018
					C386.277,178.695,390.861,168.63,398.155,155.967z"/>
				<path class="st27" d="M398.275,156.175c7.594,12.899,11.768,22.098,12.443,23.53c0.003,0.007,0.009,0.018,0.038,0.081
					c0.429,0.923,1.071,2.345,1.91,4.05c0.012,0.025,0.026,0.053,0.053,0.109c0.654,1.357,1.695,3.446,3.089,6.128
					c-0.001,0.003-0.023,0.05-0.024,0.054c-0.561,1.224-5.234,11.571-12.688,24.528c-7.592-12.896-11.766-22.093-12.442-23.524
					c-0.003-0.007-0.008-0.019-0.037-0.082c-0.423-0.926-1.071-2.344-1.911-4.049c-0.012-0.025-0.026-0.054-0.052-0.11
					c-0.649-1.36-1.695-3.446-3.088-6.127c0.001-0.002,0.019-0.043,0.02-0.045c0,0,0.007-0.017,0.007-0.017
					C386.382,178.965,391.004,168.809,398.275,156.175z"/>
				<path class="st28" d="M398.396,156.383c7.436,12.646,11.554,21.692,12.277,23.224c0.003,0.007,0.009,0.019,0.037,0.08
					c0.451,0.97,1.084,2.372,1.884,3.997c0.012,0.024,0.025,0.051,0.052,0.109c0.63,1.31,1.655,3.374,3.042,6.049
					c-0.002,0.003-0.022,0.049-0.024,0.052c-0.559,1.217-5.267,11.643-12.69,24.555c-7.434-12.644-11.552-21.686-12.276-23.218
					c-0.003-0.007-0.009-0.02-0.036-0.081c-0.445-0.972-1.085-2.372-1.885-3.997c-0.012-0.024-0.024-0.051-0.052-0.109
					c-0.625-1.312-1.655-3.374-3.041-6.048c0.001-0.002,0.018-0.041,0.019-0.044c0,0,0.006-0.016,0.007-0.017
					C386.486,179.234,391.147,168.988,398.396,156.383z"/>
				<path class="st29" d="M398.517,156.591c7.278,12.393,11.339,21.285,12.11,22.917c0.004,0.008,0.009,0.02,0.037,0.079
					c0.473,1.016,1.098,2.4,1.858,3.945c0.011,0.023,0.023,0.048,0.052,0.108c0.606,1.263,1.616,3.302,2.995,5.969
					c-0.002,0.003-0.021,0.047-0.023,0.051c-0.557,1.21-5.301,11.716-12.691,24.581c-7.276-12.391-11.337-21.28-12.11-22.912
					c-0.004-0.008-0.009-0.021-0.036-0.079c-0.467-1.019-1.099-2.4-1.859-3.944c-0.011-0.023-0.023-0.049-0.051-0.108
					c-0.601-1.265-1.616-3.301-2.994-5.968c0.001-0.002,0.018-0.04,0.019-0.043c0,0,0.006-0.015,0.006-0.016
					C386.591,179.503,391.29,169.167,398.517,156.591z"/>
				<path class="st30" d="M398.637,156.798c7.12,12.14,11.125,20.879,11.944,22.611c0.004,0.009,0.01,0.021,0.036,0.078
					c0.495,1.063,1.112,2.428,1.832,3.893c0.01,0.021,0.022,0.046,0.052,0.107c0.582,1.215,1.576,3.23,2.948,5.889
					c-0.002,0.004-0.021,0.045-0.023,0.05c-0.555,1.203-5.334,11.788-12.692,24.608c-7.119-12.138-11.123-20.874-11.944-22.605
					c-0.004-0.009-0.01-0.022-0.035-0.078c-0.489-1.066-1.112-2.428-1.833-3.892c-0.01-0.021-0.022-0.047-0.051-0.108
					c-0.577-1.218-1.577-3.229-2.948-5.888c0.001-0.003,0.017-0.038,0.018-0.041c0,0,0.006-0.015,0.006-0.015
					C386.696,179.772,391.433,169.346,398.637,156.798z"/>
				<path class="st31" d="M398.758,157.006c6.962,11.888,10.911,20.473,11.778,22.304c0.004,0.009,0.01,0.022,0.036,0.076
					c0.517,1.109,1.125,2.456,1.806,3.84c0.01,0.02,0.021,0.044,0.051,0.106c0.559,1.168,1.537,3.158,2.901,5.809
					c-0.002,0.004-0.02,0.044-0.022,0.048c-0.553,1.196-5.368,11.861-12.694,24.634c-6.961-11.886-10.909-20.468-11.777-22.299
					c-0.004-0.009-0.01-0.023-0.035-0.077c-0.511-1.112-1.126-2.456-1.807-3.839c-0.01-0.02-0.021-0.045-0.05-0.107
					c-0.553-1.17-1.537-3.157-2.901-5.808c0.001-0.003,0.016-0.037,0.018-0.04c0,0,0.006-0.014,0.006-0.015
					C386.8,180.042,391.576,169.525,398.758,157.006z"/>
				<path class="st32" d="M398.878,157.214c6.804,11.635,10.697,20.066,11.612,21.998c0.005,0.01,0.011,0.023,0.035,0.075
					c0.539,1.156,1.139,2.484,1.78,3.788c0.009,0.019,0.02,0.042,0.051,0.106c0.535,1.12,1.497,3.085,2.854,5.73
					c-0.002,0.004-0.019,0.042-0.022,0.047c-0.551,1.189-5.402,11.933-12.695,24.661c-6.803-11.633-10.695-20.061-11.611-21.993
					c-0.005-0.01-0.011-0.024-0.034-0.076c-0.533-1.159-1.14-2.484-1.78-3.787c-0.009-0.019-0.02-0.043-0.05-0.106
					c-0.529-1.123-1.498-3.085-2.854-5.729c0.001-0.003,0.016-0.035,0.017-0.039c0-0.001,0.005-0.013,0.006-0.014
					C386.905,180.311,391.719,169.704,398.878,157.214z"/>
				<path class="st33" d="M398.999,157.421c6.647,11.382,10.483,19.66,11.445,21.692c0.005,0.01,0.011,0.024,0.035,0.074
					c0.562,1.202,1.153,2.512,1.754,3.735c0.009,0.018,0.019,0.039,0.05,0.105c0.511,1.073,1.458,3.013,2.807,5.65
					c-0.002,0.004-0.018,0.04-0.021,0.046c-0.55,1.182-5.435,12.006-12.697,24.687c-6.645-11.38-10.481-19.655-11.445-21.687
					c-0.005-0.01-0.011-0.025-0.034-0.074c-0.555-1.205-1.153-2.511-1.754-3.735c-0.009-0.018-0.019-0.04-0.049-0.106
					c-0.506-1.075-1.458-3.013-2.807-5.649c0.002-0.003,0.015-0.034,0.017-0.037c0-0.001,0.005-0.013,0.005-0.013
					C387.01,180.58,391.863,169.883,398.999,157.421z"/>
				<path class="st34" d="M399.119,157.629c6.489,11.129,10.268,19.253,11.279,21.385c0.005,0.011,0.012,0.025,0.034,0.073
					c0.584,1.249,1.166,2.54,1.728,3.683c0.008,0.016,0.018,0.037,0.05,0.104c0.488,1.025,1.419,2.941,2.76,5.57
					c-0.002,0.005-0.018,0.039-0.021,0.044c-0.548,1.175-5.469,12.079-12.698,24.714c-6.488-11.128-10.267-19.249-11.279-21.38
					c-0.005-0.011-0.011-0.026-0.033-0.073c-0.577-1.252-1.167-2.539-1.728-3.682c-0.008-0.016-0.017-0.038-0.049-0.105
					c-0.482-1.028-1.419-2.941-2.76-5.569c0.002-0.003,0.014-0.032,0.016-0.036c0-0.001,0.005-0.012,0.005-0.012
					C387.114,180.849,392.006,170.062,399.119,157.629z"/>
				<path class="st35" d="M399.24,157.837c6.331,10.877,10.054,18.847,11.113,21.079c0.006,0.012,0.012,0.026,0.034,0.071
					c0.606,1.295,1.18,2.568,1.701,3.631c0.007,0.015,0.017,0.035,0.049,0.104c0.464,0.978,1.379,2.869,2.714,5.49
					c-0.002,0.005-0.017,0.037-0.02,0.043c-0.546,1.168-5.503,12.151-12.699,24.74c-6.33-10.875-10.053-18.842-11.113-21.074
					c-0.005-0.012-0.012-0.027-0.033-0.072c-0.6-1.298-1.181-2.567-1.702-3.63c-0.007-0.015-0.016-0.036-0.048-0.104
					c-0.459-0.98-1.379-2.869-2.714-5.489c0.002-0.003,0.014-0.031,0.016-0.035c0-0.001,0.004-0.011,0.005-0.012
					C387.219,181.119,392.149,170.241,399.24,157.837z"/>
				<path class="st36" d="M399.361,158.045c6.173,10.624,9.84,18.44,10.947,20.773c0.006,0.012,0.013,0.027,0.033,0.07
					c0.628,1.342,1.194,2.595,1.675,3.578c0.007,0.014,0.016,0.032,0.049,0.103c0.44,0.93,1.34,2.797,2.667,5.411
					c-0.003,0.005-0.016,0.035-0.019,0.042c-0.544,1.161-5.536,12.224-12.701,24.767c-6.172-10.622-9.839-18.436-10.947-20.768
					c-0.006-0.012-0.012-0.028-0.032-0.07c-0.622-1.345-1.194-2.595-1.676-3.578c-0.007-0.014-0.015-0.034-0.048-0.104
					c-0.435-0.933-1.34-2.796-2.667-5.41c0.002-0.004,0.013-0.029,0.015-0.033c0-0.001,0.004-0.01,0.004-0.011
					C387.324,181.388,392.292,170.42,399.361,158.045z"/>
				<path class="st37" d="M399.481,158.252c6.015,10.371,9.626,18.034,10.781,20.466c0.006,0.013,0.013,0.028,0.032,0.069
					c0.651,1.388,1.207,2.623,1.649,3.526c0.006,0.013,0.014,0.03,0.049,0.102c0.417,0.883,1.3,2.725,2.62,5.331
					c-0.003,0.006-0.016,0.034-0.019,0.04c-0.542,1.154-5.57,12.296-12.702,24.793c-6.014-10.369-9.625-18.03-10.781-20.462
					c-0.006-0.013-0.013-0.029-0.032-0.069c-0.644-1.391-1.208-2.623-1.65-3.525c-0.006-0.013-0.014-0.032-0.047-0.103
					c-0.412-0.885-1.301-2.724-2.62-5.33c0.002-0.004,0.012-0.027,0.015-0.032c0-0.001,0.004-0.01,0.004-0.01
					C387.428,181.657,392.435,170.599,399.481,158.252z"/>
				<path class="st38" d="M399.602,158.46c5.858,10.118,9.411,17.627,10.614,20.16c0.006,0.013,0.014,0.029,0.032,0.068
					c0.673,1.434,1.221,2.651,1.623,3.473c0.006,0.011,0.013,0.028,0.048,0.102c0.394,0.835,1.261,2.652,2.573,5.251
					c-0.003,0.006-0.015,0.032-0.018,0.039c-0.54,1.147-5.604,12.369-12.704,24.819c-5.857-10.117-9.41-17.624-10.614-20.156
					c-0.006-0.013-0.013-0.029-0.031-0.068c-0.667-1.437-1.222-2.651-1.624-3.473c-0.006-0.011-0.013-0.029-0.047-0.102
					c-0.389-0.837-1.261-2.652-2.573-5.25c0.002-0.004,0.012-0.026,0.014-0.031c0-0.001,0.004-0.009,0.004-0.01
					C387.533,181.926,392.578,170.778,399.602,158.46z"/>
				<path class="st39" d="M399.722,158.668c5.7,9.866,9.197,17.221,10.448,19.854c0.007,0.014,0.014,0.03,0.031,0.066
					c0.696,1.481,1.235,2.679,1.597,3.421c0.005,0.01,0.012,0.026,0.048,0.101c0.37,0.787,1.221,2.58,2.526,5.171
					c-0.003,0.006-0.014,0.03-0.018,0.038c-0.539,1.14-5.637,12.441-12.705,24.846c-5.699-9.864-9.196-17.217-10.448-19.849
					c-0.007-0.014-0.014-0.03-0.031-0.067c-0.69-1.484-1.235-2.679-1.598-3.42c-0.005-0.01-0.012-0.027-0.046-0.102
					c-0.365-0.79-1.222-2.58-2.526-5.171c0.002-0.004,0.011-0.024,0.013-0.029c0-0.001,0.003-0.008,0.004-0.009
					C387.638,182.195,392.721,170.957,399.722,158.668z"/>
				<path class="st40" d="M399.843,158.875c5.542,9.613,8.983,16.815,10.282,19.547c0.007,0.015,0.015,0.031,0.031,0.065
					c0.718,1.527,1.248,2.707,1.571,3.369c0.004,0.009,0.011,0.023,0.047,0.1c0.347,0.74,1.182,2.508,2.479,5.092
					c-0.003,0.006-0.013,0.029-0.017,0.037c-0.537,1.133-5.671,12.514-12.706,24.872c-5.541-9.611-8.982-16.811-10.282-19.543
					c-0.007-0.015-0.014-0.031-0.03-0.065c-0.712-1.53-1.249-2.707-1.572-3.368c-0.004-0.009-0.011-0.025-0.046-0.101
					c-0.342-0.742-1.182-2.508-2.48-5.091c0.002-0.004,0.01-0.023,0.013-0.028c0-0.001,0.003-0.007,0.003-0.008
					C387.743,182.465,392.864,171.136,399.843,158.875z"/>
				<path class="st41" d="M399.963,159.083c5.384,9.36,8.769,16.408,10.116,19.241c0.007,0.015,0.015,0.032,0.03,0.064
					c0.741,1.573,1.262,2.735,1.545,3.316c0.004,0.008,0.01,0.021,0.047,0.099c0.323,0.692,1.142,2.436,2.432,5.012
					c-0.003,0.007-0.013,0.027-0.017,0.035c-0.535,1.126-5.705,12.587-12.708,24.899c-5.384-9.359-8.768-16.405-10.116-19.237
					c-0.007-0.015-0.015-0.032-0.03-0.064c-0.735-1.576-1.263-2.734-1.546-3.316c-0.004-0.008-0.01-0.023-0.045-0.1
					c-0.319-0.694-1.143-2.436-2.433-5.011c0.002-0.005,0.01-0.021,0.012-0.027c0-0.001,0.003-0.007,0.003-0.007
					C387.847,182.734,393.007,171.315,399.963,159.083z"/>
				<path class="st42" d="M400.084,159.291c5.226,9.107,8.554,16.002,9.95,18.934c0.008,0.016,0.016,0.033,0.03,0.063
					c0.764,1.62,1.276,2.763,1.519,3.264c0.003,0.006,0.009,0.019,0.046,0.099c0.3,0.645,1.103,2.364,2.386,4.932
					c-0.003,0.007-0.012,0.025-0.016,0.034c-0.533,1.119-5.738,12.659-12.709,24.925c-5.226-9.106-8.554-15.998-9.95-18.931
					c-0.008-0.016-0.015-0.033-0.029-0.063c-0.759-1.622-1.276-2.762-1.52-3.263c-0.003-0.006-0.009-0.02-0.045-0.1
					c-0.296-0.646-1.103-2.364-2.386-4.931c0.002-0.005,0.009-0.02,0.012-0.025c0-0.001,0.002-0.006,0.003-0.007
					C387.952,183.003,393.15,171.494,400.084,159.291z"/>
				<path class="st43" d="M400.205,159.499c5.069,8.855,8.34,15.595,9.783,18.628c0.008,0.016,0.016,0.034,0.029,0.061
					c0.786,1.666,1.289,2.791,1.493,3.211c0.002,0.005,0.008,0.016,0.046,0.098c0.278,0.597,1.063,2.292,2.339,4.852
					c-0.004,0.007-0.011,0.024-0.016,0.033c-0.531,1.112-5.772,12.732-12.711,24.952c-5.068-8.853-8.34-15.592-9.784-18.624
					c-0.008-0.016-0.016-0.034-0.029-0.061c-0.782-1.668-1.29-2.79-1.493-3.211c-0.002-0.005-0.007-0.018-0.044-0.099
					c-0.273-0.599-1.064-2.291-2.339-4.852c0.002-0.005,0.008-0.018,0.011-0.024c0-0.001,0.002-0.005,0.003-0.006
					C388.057,183.272,393.293,171.673,400.205,159.499z"/>
				<path class="st44" d="M400.325,159.706c4.911,8.602,8.126,15.189,9.617,18.322c0.008,0.017,0.017,0.035,0.028,0.06
					c0.813,1.71,1.303,2.818,1.466,3.159c0.002,0.004,0.007,0.014,0.045,0.097c0.254,0.549,1.024,2.219,2.292,4.773
					c-0.004,0.007-0.011,0.022-0.015,0.031c-0.529,1.105-5.806,12.804-12.712,24.978c-4.91-8.6-8.126-15.186-9.618-18.318
					c-0.008-0.017-0.016-0.035-0.028-0.06c-0.806-1.713-1.304-2.818-1.467-3.158c-0.002-0.004-0.006-0.016-0.044-0.098
					c-0.25-0.551-1.024-2.219-2.293-4.772c0.003-0.005,0.008-0.017,0.011-0.022c0-0.001,0.002-0.004,0.002-0.005
					C388.161,183.542,393.436,171.852,400.325,159.706z"/>
				<path class="st45" d="M400.446,159.914c4.753,8.349,7.912,14.782,9.451,18.015c0.008,0.018,0.017,0.036,0.028,0.059
					c0.835,1.757,1.317,2.846,1.44,3.107c0.001,0.003,0.006,0.012,0.045,0.097c0.23,0.502,0.984,2.147,2.245,4.693
					c-0.004,0.008-0.01,0.021-0.014,0.03c-0.528,1.098-5.839,12.877-12.713,25.005c-4.753-8.348-7.912-14.78-9.452-18.012
					c-0.008-0.018-0.017-0.036-0.028-0.059c-0.83-1.759-1.317-2.846-1.441-3.106c-0.001-0.003-0.005-0.014-0.043-0.098
					c-0.227-0.503-0.985-2.147-2.246-4.692c0.003-0.005,0.007-0.015,0.01-0.021c0-0.001,0.002-0.004,0.002-0.005
					C388.266,183.811,393.579,172.031,400.446,159.914z"/>
				<path class="st46" d="M400.566,160.122c4.595,8.096,7.697,14.376,9.285,17.709c0.009,0.018,0.017,0.037,0.027,0.058
					c0.858,1.803,1.33,2.874,1.414,3.054c0.001,0.001,0.005,0.009,0.045,0.096c0.207,0.454,0.945,2.075,2.198,4.613
					c-0.004,0.008-0.009,0.019-0.014,0.029c-0.526,1.091-5.873,12.949-12.715,25.031c-4.595-8.095-7.698-14.373-9.285-17.706
					c-0.009-0.018-0.017-0.037-0.027-0.058c-0.858-1.803-1.331-2.874-1.415-3.054c-0.001-0.001-0.004-0.011-0.043-0.097
					c-0.204-0.455-0.946-2.075-2.199-4.612c0.003-0.006,0.006-0.013,0.01-0.02c0-0.001,0.001-0.003,0.002-0.004
					C388.371,184.08,393.722,172.21,400.566,160.122z"/>
				<path class="st47" d="M400.686,210.504c-6.873-12.147-10.408-20.173-10.535-20.457c0,0-0.004-0.009-0.042-0.096
					c-0.182-0.407-0.906-2.003-2.152-4.533c0.439-0.891,5.858-12.94,12.73-25.089c6.873,12.149,10.407,20.177,10.533,20.461
					c0,0,0.004,0.007,0.044,0.095c0.182,0.407,0.905,2.003,2.151,4.534C412.978,186.309,407.559,198.357,400.686,210.504z"/>
			</g>
		</g>
	</mask>
	<path id="Shadow_3_" class="st62" d="M411.264,180.885c0.317,0.714,2.294,5.063,5.859,11.749l-0.031,0.068
		c-0.581,1.302-4.863,10.772-12.673,24.237c-9.327-15.676-14.121-26.562-14.269-26.893c0,0-0.004-0.009-0.042-0.096
		c-0.318-0.714-2.295-5.062-5.859-11.747l0.026-0.06l0.01-0.025c0.944-2.115,5.145-11.278,12.663-24.228
		c9.329,15.679,14.125,26.569,14.271,26.9C411.22,180.79,411.224,180.797,411.264,180.885z"/>
	<path class="st63" d="M485.847,70.536c-3.728-0.357-13.858-1.342-15.938-1.608l-3.413-0.436l-2.663,2.177
		c-22.08,18.042-42.395,41.443-60.383,69.561c-12.534,19.63-19.346,34.48-20.592,37.274l-0.248-1.054l-0.008,1.624
		c-0.167,0.366-0.419,0.904-0.742,1.585c-1.004,2.106-2.124,4.347-3.327,6.664c-2.743,5.284-7.31,13.612-13.492,23.286
		c-10.795,16.924-28.609,41.129-52.176,60.34c-8.33,6.803-9.575,19.115-2.773,27.448c3.852,4.716,9.467,7.161,15.129,7.16
		c4.338,0,8.704-1.437,12.32-4.387c22.086-18.047,42.4-41.449,60.383-69.563c12.659-19.822,19.6-35.05,20.558-37.196
		c0.024-0.055,0.056-0.124,0.093-0.21l0.163-0.357c0.167-0.365,0.426-0.926,0.779-1.668c0.664-1.395,1.78-3.683,3.325-6.658
		c2.748-5.294,7.319-13.632,13.489-23.287c10.799-16.925,28.617-41.132,52.173-60.336l2.645-2.156l0.274-3.401
		c0.391-4.835,1.602-15.849,1.614-15.959l0.888-8.066L485.847,70.536z"/>
	<path class="st59" d="M334.995,269.83c-1.343-0.148-13.219-1.458-16.564-1.669l-3.128-0.198l-2.43,1.98
		c-26.225,21.366-53.979,32.203-82.485,32.209c-23.135-0.006-45.496-6.762-64.665-19.539c-8.948-5.965-21.084-3.539-27.051,5.409
		c-2.892,4.335-3.921,9.537-2.9,14.647c1.022,5.11,3.973,9.517,8.307,12.404c25.588,17.071,55.424,26.093,86.285,26.093
		c0.016-0.001,0.033,0,0.052,0c37.811,0,73.855-13.795,107.127-40.999l2.493-2.038l0.386-3.196
		c0.688-5.696,1.622-15.993,1.662-16.429l0.708-7.811L334.995,269.83z"/>
	<path class="st60" d="M169.135,287.732l-0.641-3.266l-2.768-1.848c-32.608-21.766-52.076-58.103-52.074-97.201
		c-0.001-39.099,19.465-75.435,52.074-97.198l15.924-9.186l-18.472-5.241c-2.748-0.669-5.528-1.36-7.936-1.963
		c0.393-2.571,0.828-5.527,1.204-8.353l3.228-17.15L144.08,55.76c-43.482,28.973-69.442,77.442-69.442,129.657
		c0,52.215,25.96,100.686,69.442,129.658l2.699,1.798l3.189-0.589c7.248-1.338,15.807-3.153,16.167-3.23l7.745-1.645l-1.564-7.762
		C172.316,303.645,170.08,292.55,169.135,287.732z"/>
	<path class="st56" d="M571.091,363.28h-0.056c-42.899,0-83.521-15.428-120.732-45.856l-8.874-7.255l-0.062-0.413
		c-14.334-12.838-27.982-27.884-40.6-44.751c-12.526,16.75-26.074,31.705-40.298,44.482l-0.045,0.373l-9.191,7.566
		c-37.057,30.297-77.495,45.725-120.193,45.854l-0.713,0.001c-30.666-0.021-60.892-8.028-87.456-23.165l-0.556,0.104l-10.078-6.64
		c-49.479-32.967-79.019-88.125-79.019-147.548c0-59.422,29.541-114.581,79.021-147.549l0.448-0.298l16.088-9.476
		c25.041-13.033,53.28-19.922,81.664-19.922c38.987-0.001,76.194,12.771,110.592,37.957l0.427-0.05l9.769,7.941
		c17.658,14.43,34.318,32.061,49.542,52.421c15.043-20.121,31.488-37.573,48.905-51.899l0.441-0.403l0.607-0.454l9.385-7.672
		l0.473,0.06c34.375-25.152,71.535-37.903,110.464-37.903c34.992,0,68.841,10.186,97.886,29.457
		c0.117,0.074,3.135,2.088,3.135,2.088l7.357,4.908l0.129,0.634c21.164,16.39,38.608,37.742,50.468,61.779
		c11.971,24.264,18.299,51.368,18.299,78.383c-0.001,59.307-29.454,114.407-78.787,147.392l-10.284,6.853l-0.647-0.124
		C632.016,355.284,601.769,363.279,571.091,363.28z M444.226,308.581l7.976,6.521c36.663,29.979,76.645,45.179,118.834,45.179h0.056
		c30.341-0.001,60.252-7.956,86.498-23.004L658.07,337l0.533,0.101l9.261-6.171c48.497-32.426,77.452-86.593,77.453-144.896
		c0-26.557-6.221-53.202-17.989-77.056c-11.74-23.796-29.048-44.914-50.051-61.071l-0.443-0.341l-0.105-0.519l-6.329-4.222
		c-0.001,0-2.914-1.945-3.107-2.07c-28.572-18.957-61.848-28.97-96.248-28.97c-38.457,0-75.188,12.675-109.17,37.674l-0.482,0.354
		l-0.382-0.048l-9.39,7.676c-17.709,14.56-34.411,32.398-49.645,53.021l-1.207,1.633l-1.207-1.633
		c-15.399-20.848-32.301-38.849-50.233-53.504l-8.777-7.137l-0.344,0.041l-0.477-0.351c-34.005-25.033-70.776-37.725-109.292-37.724
		c-27.903,0-55.664,6.772-80.279,19.584l-0.479,0.25l-15.777,9.36C85.26,73.391,56.219,127.616,56.219,186.032
		c0,58.417,29.04,112.642,77.682,145.052l2.7,1.799l6.349,4.165l0.454-0.085l0.479,0.275c26.226,15.054,56.117,23.022,86.442,23.042
		l0.708-0.001c41.989-0.127,81.792-15.326,118.301-45.176l8.256-6.795l0.037-0.304l0.421-0.377
		c14.683-13.134,28.649-28.62,41.512-46.029l1.207-1.632l1.207,1.632c12.947,17.521,27.009,33.092,41.795,46.281l0.406,0.362
		L444.226,308.581z"/>
	<g>
		<path class="st5" d="M207.024,50.134v-0.034c0-3.383,2.533-6.153,6.136-6.153c2.193,0,3.519,0.765,4.658,1.853l-1.343,1.547
			c-0.952-0.884-1.972-1.479-3.332-1.479c-2.261,0-3.926,1.87-3.926,4.199v0.034c0,2.329,1.649,4.215,3.926,4.215
			c1.462,0,2.397-0.578,3.417-1.53l1.343,1.36c-1.241,1.292-2.601,2.108-4.828,2.108C209.607,56.254,207.024,53.551,207.024,50.134z
			"/>
		<path class="st5" d="M220.284,50.134v-0.034c0-3.349,2.583-6.153,6.238-6.153s6.205,2.771,6.205,6.119v0.034
			c0,3.349-2.584,6.153-6.238,6.153C222.834,56.254,220.284,53.483,220.284,50.134z M230.534,50.134v-0.034
			c0-2.312-1.683-4.233-4.045-4.233c-2.363,0-4.012,1.887-4.012,4.199v0.034c0,2.312,1.683,4.215,4.045,4.215
			S230.534,52.446,230.534,50.134z"/>
		<path class="st5" d="M236.314,44.151h4.437c3.74,0,6.323,2.567,6.323,5.916v0.034c0,3.349-2.583,5.949-6.323,5.949h-4.437V44.151z
			 M238.405,46.055v8.091h2.346c2.499,0,4.131-1.683,4.131-4.012v-0.034c0-2.329-1.632-4.046-4.131-4.046H238.405z"/>
		<path class="st5" d="M250.663,44.151h8.822v1.87h-6.731v3.093h5.966v1.87h-5.966v3.196h6.816v1.87h-8.907V44.151z"/>
	</g>
	<g>
		<path class="st5" d="M209.815,314.509h-3.774v-1.938h9.655v1.938h-3.773v9.961h-2.108V314.509z"/>
		<path class="st5" d="M218.961,312.571h8.822v1.87h-6.731v3.093h5.966v1.87h-5.966v3.196h6.816v1.87h-8.907V312.571z"/>
		<path class="st5" d="M230.606,322.736l1.258-1.496c1.139,0.986,2.295,1.547,3.757,1.547c1.292,0,2.107-0.612,2.107-1.496v-0.034
			c0-0.85-0.476-1.309-2.686-1.818c-2.533-0.612-3.96-1.36-3.96-3.553v-0.034c0-2.04,1.7-3.451,4.062-3.451
			c1.734,0,3.111,0.527,4.317,1.496l-1.122,1.581c-1.071-0.799-2.142-1.224-3.23-1.224c-1.224,0-1.938,0.629-1.938,1.411v0.034
			c0,0.918,0.544,1.326,2.838,1.87c2.516,0.612,3.808,1.513,3.808,3.485v0.034c0,2.227-1.75,3.553-4.25,3.553
			C233.75,324.64,232.034,324.011,230.606,322.736z"/>
		<path class="st5" d="M246.008,314.509h-3.773v-1.938h9.655v1.938h-3.773v9.961h-2.108V314.509z"/>
	</g>
	<g>
		<path class="st5" d="M706.907,159.484l0.034-0.003c3.336-0.292,6.356,2.038,6.674,5.68c0.318,3.642-2.22,6.424-5.557,6.715
			l-0.034,0.003c-3.337,0.292-6.356-2.038-6.674-5.68C701.032,162.557,703.57,159.775,706.907,159.484z M707.8,169.697l0.034-0.003
			c2.303-0.201,4.07-2.045,3.865-4.399c-0.206-2.354-2.229-3.833-4.533-3.632l-0.034,0.003c-2.303,0.201-4.054,2.044-3.848,4.398
			C703.489,168.418,705.496,169.898,707.8,169.697z"/>
		<path class="st5" d="M714.081,175.838l-0.047,4.691c-0.027,2.788-1.625,4.506-4.021,4.482h-0.034
			c-2.669-0.026-4.042-2.183-4.016-4.8l0.023-2.363l-3.825-0.037l0.021-2.091L714.081,175.838z M707.849,180.298
			c-0.016,1.581,0.858,2.576,2.1,2.588l0.034,0.001c1.394,0.014,2.135-0.982,2.15-2.546l0.023-2.431l-4.283-0.043L707.849,180.298z"
			/>
		<path class="st5" d="M713.852,188.881l-0.688,8.798l-1.865-0.146l0.525-6.713l-3.085-0.242l-0.466,5.95l-1.865-0.146l0.467-5.95
			l-3.188-0.25l-0.532,6.798l-1.865-0.146l0.696-8.884L713.852,188.881z"/>
		<path class="st5" d="M712.638,202.009l-0.843,5.236c-0.237,1.478-0.86,2.565-1.72,3.202c-0.738,0.518-1.668,0.73-2.691,0.565
			l-0.033-0.006c-1.931-0.311-2.902-1.654-3.11-3.358l-4.958,2.456l0.394-2.45l4.561-2.228l0.416-2.585l-4.096-0.659l0.332-2.064
			L712.638,202.009z M705.995,206.158c-0.237,1.477,0.384,2.541,1.575,2.733l0.033,0.005c1.259,0.202,2.093-0.593,2.339-2.12
			l0.483-3.005l-3.944-0.635L705.995,206.158z"/>
		<path class="st5" d="M709.245,220.057l-0.475,1.879l-12.901,2.139l0.542-2.143l3.08-0.466l1.379-5.455l-2.484-1.89l0.524-2.077
			L709.245,220.057z M701.476,221.179l5.118-0.828l-4.114-3.144L701.476,221.179z"/>
		<path class="st5" d="M703.933,231.292l1.192-3.58l1.839,0.612l-3.051,9.16l-1.839-0.611l1.192-3.581l-9.451-3.147l0.666-2
			L703.933,231.292z"/>
		<path class="st5" d="M702.487,241.169l-3.429,8.125l-1.723-0.727l2.616-6.2l-2.849-1.202l-2.319,5.495l-1.723-0.727l2.319-5.495
			l-2.943-1.242l-2.649,6.277l-1.722-0.727l3.462-8.203L702.487,241.169z"/>
	</g>
	<path id="SVGID_x5F_7_x5F_" class="st15" d="M197.659,338.275l1.564,7.762l-7.745,1.645c-0.361,0.077-8.919,1.892-16.167,3.23
		l-3.189,0.589l-2.699-1.798c-43.482-28.972-69.442-77.442-69.442-129.658c0-52.215,25.96-100.685,69.442-129.657l14.7-9.794
		l-2.334,17.509c-0.376,2.826-0.811,5.782-1.204,8.353c2.408,0.604,5.188,1.294,7.936,1.963l17.704,4.312l-15.156,10.115
		c-32.608,21.764-52.075,58.1-52.074,97.198c-0.001,39.099,19.466,75.436,52.074,97.201l2.768,1.848l0.641,3.266
		C195.422,327.178,197.658,338.272,197.659,338.275z"/>
	<text>	<textPath  xlink:href="#SVGID_x5F_7_x5F_" startOffset="-2352.9009%">
<tspan  class="st5 st7 st51" style="letter-spacing:62;">BUILD</tspan>	</textPath>
</text>
	<g>
		<path class="st5" d="M377.017,214.5l2.785-4.513c0.785-1.273,1.777-2.039,2.815-2.297c0.88-0.196,1.82-0.036,2.702,0.509
			l0.029,0.018c1.664,1.026,2.046,2.641,1.585,4.294l5.521-0.369l-1.303,2.112l-5.065,0.311l-1.375,2.228l3.53,2.178l-1.098,1.779
			L377.017,214.5z M384.741,213.214c0.786-1.272,0.62-2.493-0.407-3.127l-0.029-0.019c-1.085-0.669-2.16-0.254-2.972,1.062
			l-1.598,2.589l3.399,2.098L384.741,213.214z"/>
		<path class="st5" d="M383.639,203.598l4.316-7.697l1.631,0.915l-3.293,5.873l2.7,1.514l2.919-5.206l1.631,0.915l-2.919,5.205
			l2.788,1.563l3.335-5.947l1.631,0.915l-4.357,7.771L383.639,203.598z"/>
		<path class="st5" d="M389.541,192.076l1.128-1.761l8.416,5.392l3.375-5.267l1.603,1.027l-4.503,7.027L389.541,192.076z"/>
		<path class="st5" d="M394.413,181.763l4.894-7.341l1.556,1.037l-3.734,5.602l2.574,1.716l3.31-4.965l1.556,1.037l-3.31,4.965
			l2.659,1.773l3.781-5.673l1.556,1.038l-4.941,7.411L394.413,181.763z"/>
		<path class="st5" d="M402.181,167.283l0.929-1.701l13.031,1.147l-1.06,1.94l-3.101-0.317l-2.697,4.939l1.935,2.451l-1.026,1.881
			L402.181,167.283z M409.987,168.135l-5.165-0.476l3.201,4.072L409.987,168.135z"/>
		<path class="st5" d="M415.669,164.133l-0.641-1.848c1.431-0.473,2.505-1.178,3.254-2.434c0.663-1.11,0.555-2.125-0.204-2.577
			l-0.029-0.018c-0.73-0.436-1.368-0.262-2.939,1.375c-1.823,1.862-3.198,2.706-5.082,1.582l-0.029-0.018
			c-1.752-1.045-2.093-3.229-0.882-5.259c0.889-1.489,2.047-2.402,3.498-2.942l0.783,1.774c-1.235,0.511-2.149,1.213-2.707,2.147
			c-0.627,1.051-0.453,1.987,0.219,2.388l0.029,0.018c0.789,0.47,1.417,0.212,3.061-1.48c1.815-1.847,3.251-2.496,4.945-1.485
			l0.029,0.018c1.913,1.141,2.154,3.325,0.874,5.472C418.916,162.408,417.496,163.56,415.669,164.133z"/>
		<path class="st5" d="M413.676,147.762l4.775-7.42l1.572,1.012l-3.644,5.662l2.603,1.675l3.229-5.019l1.572,1.012l-3.229,5.019
			l2.688,1.729l3.689-5.733l1.572,1.012l-4.821,7.492L413.676,147.762z"/>
	</g>
	<g>
		<path class="st5" d="M353.705,102.889l2.943,3.651c1.749,2.169,1.607,4.511-0.259,6.015l-0.026,0.021
			c-2.076,1.674-4.505,0.882-6.147-1.155l-1.483-1.839l-2.977,2.4l-1.312-1.627L353.705,102.889z M351.727,110.29
			c0.992,1.23,2.299,1.443,3.265,0.665l0.026-0.021c1.084-0.875,1.024-2.114,0.043-3.331l-1.525-1.892l-3.334,2.688L351.727,110.29z
			"/>
		<path class="st5" d="M361.647,112.887l1.25,1.676l-8.013,5.976l3.74,5.015l-1.526,1.138l-4.989-6.69L361.647,112.887z"/>
		<path class="st5" d="M371.19,125.892l1.1,1.597l-6.905,11.113l-1.254-1.821l1.683-2.624l-3.191-4.637l-3.062,0.621l-1.215-1.765
			L371.19,125.892z M366.906,132.475l2.756-4.395l-5.08,1.019L366.906,132.475z"/>
		<path class="st5" d="M377.076,134.759l1.034,1.638l-3.559,9.777l6.957-4.387l1.097,1.739l-10.062,6.345l-0.934-1.48l3.659-10.062
			l-7.158,4.514l-1.097-1.739L377.076,134.759z"/>
	</g>
</g>
</svg>
