<svg enable-background="new 0 0 244.7 109.7" viewBox="0 0 244.7 109.7" xmlns="http://www.w3.org/2000/svg"><path d="m65.6 85.6h-7.5c-.1 0-.1-.1-.1-.1v-38.2c0-.1.1-.1.1-.1h7.5c.1 0 .1.1.1.1v2.2c1.3-1.5 4-2.9 7-2.9 8.2 0 12.8 6.8 12.8 14.7s-4.6 14.6-12.8 14.6c-2.8 0-5.4-1.3-6.8-2.7-.1-.1-.2 0-.2.1v12.2s-.1.1-.1.1zm.1-19.8c1 2 3 3.3 5.3 3.3 4.2 0 6.7-3.4 6.7-7.8 0-4.5-2.5-7.9-6.7-7.9-2.3 0-4.3 1.4-5.3 3.2v.1z" fill="#fff"/><path d="m113.7 75.2h-7.5c-.1 0-.1-.1-.1-.1v-2.1c0-.1-.2-.2-.2-.1-1.6 1.6-4.2 2.9-7.3 2.9-6.3 0-9.9-4.1-9.9-10.4v-18.1c0-.1.1-.1.1-.1h7.5c.1 0 .1.1.1.1v16.6c0 2.9 1.4 5 4.5 5 2.4 0 4.4-1.4 5-3.9v-17.7c0-.1.1-.1.1-.1h7.6c.1 0 .1.1.1.1v27.8c.1 0 .1.1 0 .1z" fill="#fff"/><path d="m126.7 85.6h-7.5c-.1 0-.1-.1-.1-.1v-38.2c0-.1.1-.1.1-.1h7.5c.1 0 .1.1.1.1v2.2c1.3-1.5 4-2.9 7-2.9 8.2 0 12.8 6.8 12.8 14.7s-4.6 14.6-12.8 14.6c-2.8 0-5.4-1.3-6.8-2.7-.1-.1-.2 0-.2.1v12.2s-.1.1-.1.1zm.1-19.8c1 2 3 3.3 5.3 3.3 4.2 0 6.7-3.4 6.7-7.8 0-4.5-2.5-7.9-6.7-7.9-2.3 0-4.3 1.4-5.3 3.2v.1z" fill="#fff"/><path d="m157.7 85.6h-7.5c-.1 0-.1-.1-.1-.1v-38.2c0-.1.1-.1.1-.1h7.5c.1 0 .1.1.1.1v2.2c1.3-1.5 4-2.9 7-2.9 8.2 0 12.8 6.8 12.8 14.7s-4.6 14.6-12.8 14.6c-2.8 0-5.4-1.3-6.8-2.7-.1-.1-.2 0-.2.1v12.2c.1 0 0 .1-.1.1zm.2-19.8c1 2 3 3.3 5.3 3.3 4.2 0 6.7-3.4 6.7-7.8 0-4.5-2.5-7.9-6.7-7.9-2.3 0-4.3 1.4-5.3 3.2v.1z" fill="#fff"/><path d="m205.5 66c.1 0 .2.1.1.2-1.1 5.9-5.4 9.6-12.4 9.6-8.2 0-13.6-6-13.6-14.6 0-7.4 4.3-13 10.5-14.4 8.1-1.7 15.7 4.8 15.7 13.1v2.7c0 .1-.1.1-.1.1h-18.4c-.1 0-.2.1-.1.2.3 4.1 2.7 6.6 6.1 6.6 2.6 0 4.5-1.1 5.2-3.4 0-.1.1-.1.1-.1zm-18-7.9h10.5c.1 0 .2-.1.1-.2-.1-2.9-1.9-5.1-5-5.1-3 0-5.1 1.8-5.8 5.1.1.1.1.2.2.2z" fill="#fff"/><path d="m210.9 53.4h-4c-.1 0-.1-.1-.1-.1v-6c0-.1.1-.1.1-.1h4c.1 0 .1-.1.1-.1v-7.3c0-.1.1-.1.1-.1h7.4c.1 0 .1.1.1.1v7.2c0 .1.1.1.1.1h5.9c.1 0 .1.1.1.1v6c0 .1-.1.1-.1.1h-5.9c-.1 0-.1.1-.1.1v12.2c0 2.2 1.2 3.2 3.2 3.2 1.1 0 2.3-.3 3.2-.8.1-.1.2 0 .2.1v6.6c0 .1 0 .1-.1.1-1.1.5-2.9.8-4.9.8-5.7 0-9.3-2.8-9.3-9v-13c.1-.1 0-.2 0-.2z" fill="#fff"/><path d="m46.2 47v-17.4c0-.1-.1-.1-.1-.1h-13.4l-7.2-7.2v-.1-13.3c0-.1-.1-.1-.1-.1h-17.4c-.1 0-.1.1-.1.1v17.4c0 .1.1.1.1.1h13.3.1l7.2 7.2v9.4l-7.2 7.2h-.1-13.3c-.1 0-.1.1-.1.1v17.4c0 .1.1.1.1.1h17.4c.1 0 .1-.1.1-.1v-13.3-.1l7.2-7.2h.1 13.3s.1 0 .1-.1zm-32.3-32.4h5.6c.1 0 .1.1.1.1v5.6c0 .1-.1.1-.1.1h-5.6c-.1 0-.1-.1-.1-.1v-5.6c-.1 0 0-.1.1-.1zm5.5 47.4h-5.6c-.1 0-.1-.1-.1-.1v-5.6c0-.1.1-.1.1-.1h5.6c.1 0 .1.1.1.1v5.6c.1 0 0 .1-.1.1z" fill="#ffaa1a"/><g fill="#fff"><path d="m167 95.6h-1.2v-10.6h1.2v4.2c.4-.5 1.1-1 2-1 2.1 0 3.3 1.7 3.3 3.8s-1.1 3.8-3.3 3.8c-.9 0-1.7-.5-2-1zm0-2.1c.4.8 1.1 1.2 1.9 1.2 1.4 0 2.2-1.1 2.2-2.7 0-1.5-.8-2.7-2.2-2.7-.8 0-1.5.4-1.9 1.2z"/><path d="m174.7 98.4 1.1-2.7-2.8-7.3h1.3l2.1 5.7 2.1-5.7h1.3l-3.9 10z"/><path d="m186.1 91.6v4h-1.3v-10h3.8c2 0 3.3 1 3.3 3s-1.3 3-3.3 3zm2.4-4.9h-2.4v3.7h2.4c1.4 0 2.1-.7 2.1-1.9-.1-1-.8-1.8-2.1-1.8z"/><path d="m198.7 93.5c-.3 1.4-1.3 2.3-2.9 2.3-2 0-3.3-1.5-3.3-3.8 0-2.2 1.3-3.8 3.3-3.8s3.1 1.5 3.1 3.6v.4h-5.1c0 1.6.9 2.5 2.1 2.5.9 0 1.6-.5 1.8-1.3h1zm-5-2.2h3.9c0-1.1-.6-2-1.8-2-1.1 0-1.9.7-2.1 2z"/><path d="m204.1 89.6c-.2-.1-.5-.2-.8-.2-.8 0-1.4.5-1.7 1.4v4.9h-1.2v-7.2h1.2v.9c.3-.6 1-1.1 1.8-1.1.3 0 .6 0 .7.1z"/><path d="m209.2 86.2c-.2-.1-.5-.2-.8-.2-.7 0-1.2.5-1.2 1.3v1.1h1.6v1h-1.6v6.2h-1.2v-6.2h-1.2v-1h1.2v-1.2c0-1.5.9-2.3 2.2-2.3.4 0 .7 0 .9.2v1.1z"/><path d="m212.9 95.8c-2 0-3.3-1.6-3.3-3.8s1.3-3.8 3.3-3.8 3.3 1.6 3.3 3.8-1.4 3.8-3.3 3.8zm0-6.5c-1.3 0-2.1 1.1-2.1 2.7s.8 2.7 2.1 2.7 2.1-1.1 2.1-2.7c-.1-1.6-.8-2.7-2.1-2.7z"/><path d="m221.5 89.6c-.2-.1-.5-.2-.8-.2-.8 0-1.4.5-1.7 1.4v4.9h-1.2v-7.2h1.2v.9c.3-.6 1-1.1 1.8-1.1.3 0 .6 0 .7.1z"/><path d="m225.5 88.2c1.6 0 2.7.9 2.9 2.3h-1.3c-.2-.8-.8-1.3-1.6-1.3-1.2 0-2.1 1.1-2.1 2.7s.8 2.7 2.1 2.7c.9 0 1.5-.5 1.6-1.3h1.3c-.2 1.4-1.3 2.3-2.9 2.3-1.9 0-3.3-1.5-3.3-3.8 0-2 1.3-3.6 3.3-3.6z"/><path d="m235.6 93.5c-.3 1.4-1.3 2.3-2.9 2.3-2 0-3.3-1.5-3.3-3.8 0-2.2 1.3-3.8 3.3-3.8s3.1 1.5 3.1 3.6v.4h-5.1c0 1.6.9 2.5 2.1 2.5.9 0 1.6-.5 1.8-1.3h1zm-5-2.2h3.9c0-1.1-.6-2-1.8-2-1.1 0-1.9.7-2.1 2z"/></g></svg>
