<svg xmlns="http://www.w3.org/2000/svg" xmlns:xlink="http://www.w3.org/1999/xlink" width="192" zoomAndPan="magnify" viewBox="0 0 144 143.999998" height="192" preserveAspectRatio="xMidYMid meet" version="1.0"><defs><g/></defs><g fill="#004aad" fill-opacity="1"><g transform="translate(3.695712, 131.351281)"><g><path d="M 28.375 -94.40625 L 28.375 -18.875 L 60.875 -18.875 L 60.875 0 L 6.859375 0 L 6.859375 -94.40625 Z M 28.375 -94.40625 "/></g></g></g><g fill="#00bf63" fill-opacity="1"><g transform="translate(62.902123, 131.351308)"><g><path d="M 6.859375 -94.40625 L 36.15625 -94.40625 C 45.007812 -94.40625 52.066406 -92.515625 57.328125 -88.734375 C 62.597656 -84.960938 65.234375 -78.84375 65.234375 -70.375 C 65.234375 -60.914062 61.300781 -54.164062 53.4375 -50.125 C 66.863281 -47.757812 73.578125 -39.828125 73.578125 -26.328125 C 73.578125 -18.390625 70.832031 -12.015625 65.34375 -7.203125 C 59.851562 -2.398438 52.300781 0 42.6875 0 L 6.859375 0 Z M 28.375 -57.453125 L 30.09375 -57.453125 C 34.90625 -57.453125 38.492188 -58.289062 40.859375 -59.96875 C 43.222656 -61.644531 44.40625 -64.390625 44.40625 -68.203125 C 44.40625 -74.609375 39.632812 -77.8125 30.09375 -77.8125 L 28.375 -77.8125 Z M 28.375 -16.59375 L 35.125 -16.59375 C 45.65625 -16.59375 50.921875 -20.101562 50.921875 -27.125 C 50.921875 -31.320312 49.601562 -34.332031 46.96875 -36.15625 C 44.34375 -37.988281 40.394531 -38.90625 35.125 -38.90625 L 28.375 -38.90625 Z M 28.375 -16.59375 "/></g></g></g><g fill="#e61d2b" fill-opacity="1"><g transform="translate(20.015286, 84.715128)"><g><path d="M 32.484375 -60.953125 C 30.097656 -60.953125 27.816406 -59.769531 25.640625 -57.40625 C 23.460938 -55.050781 21.867188 -52.710938 20.859375 -50.390625 L 19.328125 -46.890625 L 5.28125 -53.703125 C 5.457031 -54.296875 5.753906 -55.066406 6.171875 -56.015625 C 6.585938 -56.972656 7.570312 -58.691406 9.125 -61.171875 C 10.675781 -63.648438 12.390625 -65.828125 14.265625 -67.703125 C 16.148438 -69.585938 18.71875 -71.304688 21.96875 -72.859375 C 25.21875 -74.410156 28.722656 -75.1875 32.484375 -75.1875 C 37.316406 -75.1875 41.535156 -74.570312 45.140625 -73.34375 C 48.753906 -72.125 51.546875 -70.601562 53.515625 -68.78125 C 55.484375 -66.957031 57.078125 -64.804688 58.296875 -62.328125 C 59.523438 -59.859375 60.300781 -57.609375 60.625 -55.578125 C 60.957031 -53.546875 61.125 -51.425781 61.125 -49.21875 C 61.125 -46 60.226562 -42.613281 58.4375 -39.0625 C 56.65625 -35.507812 54.492188 -32.347656 51.953125 -29.578125 C 49.421875 -26.804688 46.867188 -24.269531 44.296875 -21.96875 C 41.734375 -19.675781 39.554688 -17.898438 37.765625 -16.640625 L 35.078125 -14.765625 L 62.46875 -14.765625 L 62.46875 0 L 4.921875 0 L 4.921875 -4.203125 C 5.929688 -5.035156 7.300781 -6.179688 9.03125 -7.640625 C 10.769531 -9.109375 13.816406 -11.898438 18.171875 -16.015625 C 22.523438 -20.140625 26.367188 -24.003906 29.703125 -27.609375 C 33.046875 -31.222656 36.085938 -35.085938 38.828125 -39.203125 C 41.578125 -43.316406 42.953125 -46.65625 42.953125 -49.21875 C 42.953125 -50.238281 42.847656 -51.253906 42.640625 -52.265625 C 42.429688 -53.285156 42.03125 -54.523438 41.4375 -55.984375 C 40.84375 -57.441406 39.769531 -58.632812 38.21875 -59.5625 C 36.664062 -60.488281 34.753906 -60.953125 32.484375 -60.953125 Z M 32.484375 -60.953125 "/></g></g></g></svg>